<svg width="25" height="26" viewBox="0 0 25 26" fill="none" xmlns="http://www.w3.org/2000/svg">
<g clip-path="url(#clip0_352_3610)">
<path d="M16.9789 25.5952V24.4894H18.0846V23.3837H19.1904V21.1722H20.2961V22.2779H21.4018V20.0665H20.2961V18.9607H21.4018V16.7492H22.5076V14.5378H21.4018V15.6435H20.2961V16.7492H19.1904V17.855H18.0846V18.9607H16.9789V21.1722H15.8731V22.2779H14.7674V20.0665H13.6616V21.1722H12.5559V22.2779H11.4502V18.9607H12.5559V17.855H13.6616V16.7492H11.4502V17.855H10.3444V20.0665H9.23869V17.855H10.3444V16.7492H11.4502V14.5378H12.5559V13.432H13.6616V11.2205H11.4502V12.3263H9.23869V11.2205H10.3444V10.1148H11.4502V7.90332H10.3444V9.00906H9.23869V10.1148H8.13295V11.2205H7.02721V12.3263H5.92147V13.432H4.81573V14.5378H3.70999V13.432H2.60425V16.7492H3.70999V17.855H4.81573V18.9607H5.92147V21.1722H7.02721V22.2779H8.13295V23.3837H9.23869V24.4894H3.70999V25.5952H16.9789Z" fill="#FDAE35"/>
<path d="M3.70999 23.3837H2.60425V24.4894H3.70999V23.3837Z" fill="#FDAE35"/>
<path d="M2.60425 22.2778H1.49851V23.3836H2.60425V22.2778Z" fill="#FDAE35"/>
<path d="M22.5076 18.9607H21.4018V20.0664H22.5076V18.9607Z" fill="#FDAE35"/>
<path d="M14.7674 15.6434H13.6617V16.7492H14.7674V15.6434Z" fill="#FDAE35"/>
<path d="M4.81573 12.3262H3.70999V13.4319H4.81573V12.3262Z" fill="#FDAE35"/>
<path d="M5.92147 11.2205H4.81573V12.3262H5.92147V11.2205Z" fill="#FDAE35"/>
<path d="M14.7674 10.1147H13.6617V11.2205H14.7674V10.1147Z" fill="#FDAE35"/>
<path d="M7.02721 9.00903H5.92147V10.1148H7.02721V9.00903Z" fill="#FDAE35"/>
<path d="M14.7674 7.90332H13.6617V9.00906H14.7674V7.90332Z" fill="#FDAE35"/>
<path d="M8.13295 7.90332H7.02721V9.00906H8.13295V7.90332Z" fill="#FDAE35"/>
<path d="M12.5559 4.58606H11.4502V7.90328H12.5559V4.58606Z" fill="#FDAE35"/>
<path d="M5.92147 5.69177H4.81573V6.79751H5.92147V5.69177Z" fill="#FDAE35"/>
<path d="M21.4018 4.58606H20.2961V5.6918H21.4018V4.58606Z" fill="#FDAE35"/>
<path d="M3.70999 1.2688H2.60425V2.37454H3.70999V1.2688Z" fill="#FDAE35"/>
<path d="M18.0846 24.4894H16.9789V25.5951H18.0846V24.4894Z" fill="#F77622"/>
<path d="M3.70999 24.4894H2.60425V25.5951H3.70999V24.4894Z" fill="#F77622"/>
<path d="M19.1903 23.3837H18.0846V24.4894H19.1903V23.3837Z" fill="#F77622"/>
<path d="M9.23869 23.3837H8.13295V24.4894H9.23869V23.3837Z" fill="#F77622"/>
<path d="M4.81573 23.3837H3.70999V24.4894H4.81573V23.3837Z" fill="#F77622"/>
<path d="M2.60425 23.3837H1.49851V24.4894H2.60425V23.3837Z" fill="#F77622"/>
<path d="M20.2961 22.2778H19.1904V23.3836H20.2961V22.2778Z" fill="#F77622"/>
<path d="M12.5559 18.9607H11.4502V20.0664H12.5559V18.9607Z" fill="#F77622"/>
<path d="M5.92147 18.9607H4.81573V20.0664H5.92147V18.9607Z" fill="#F77622"/>
<path d="M13.6616 17.855H12.5559V18.9607H13.6616V17.855Z" fill="#F77622"/>
<path d="M4.81573 17.855H3.70999V18.9607H4.81573V17.855Z" fill="#F77622"/>
<path d="M3.70999 16.7491H2.60425V17.8549H3.70999V16.7491Z" fill="#F77622"/>
<path d="M12.5559 14.5377H11.4502V15.6435H12.5559V14.5377Z" fill="#F77622"/>
<path d="M13.6616 13.432H12.5559V14.5377H13.6616V13.432Z" fill="#F77622"/>
<path d="M3.70999 12.3262H2.60425V13.4319H3.70999V12.3262Z" fill="#F77622"/>
<path d="M14.7674 11.2205H13.6617V12.3262H14.7674V11.2205Z" fill="#F77622"/>
<path d="M10.3444 11.2205H9.23869V12.3262H10.3444V11.2205Z" fill="#F77622"/>
<path d="M4.81573 11.2205H3.70999V12.3262H4.81573V11.2205Z" fill="#F77622"/>
<path d="M11.4502 10.1147H10.3444V11.2205H11.4502V10.1147Z" fill="#F77622"/>
<path d="M5.92147 10.1147H4.81573V11.2205H5.92147V10.1147Z" fill="#F77622"/>
<path d="M20.2961 21.1721H19.1904V22.2779H20.2961V21.1721Z" fill="#E43B44"/>
<path d="M1.49851 21.1721V20.0664H0.392769V23.3836H1.49851V22.2779H2.60425V21.1721H1.49851Z" fill="#E43B44"/>
<path d="M21.4018 18.9607H20.2961V20.0664H21.4018V18.9607Z" fill="#E43B44"/>
<path d="M10.3444 17.855H9.23869V20.0665H10.3444V17.855Z" fill="#E43B44"/>
<path d="M11.4502 16.7491H10.3444V17.8549H11.4502V16.7491Z" fill="#E43B44"/>
<path d="M23.6133 13.432H22.5076V12.3262H21.4018V11.2205H20.2961V14.5377H19.1904V15.6434H18.0846V16.7492H16.9789V17.8549H15.8731V16.7492H16.9789V14.5377H18.0846V12.3262H19.1904V9.00901H18.0846V6.79753H16.9789V5.69179H15.8731V4.58605H14.7674V3.48031H13.6617V2.37457H12.5559V1.26883H11.4502V0.163086H10.3444V4.58605H9.23869V5.69179H8.13295V6.79753H7.02721V7.90327H8.13295V9.00901H7.02721V10.1147H5.92147V12.3262H7.02721V11.2205H8.13295V10.1147H9.23869V9.00901H10.3444V7.90327H11.4502V4.58605H12.5559V7.90327H11.4502V11.2205H13.6617V10.1147H14.7674V12.3262H13.6617V14.5377H12.5559V15.6434H11.4502V16.7492H13.6617V15.6434H14.7674V16.7492H13.6617V18.9607H12.5559V20.0664H11.4502V22.2779H12.5559V21.1721H13.6617V20.0664H14.7674V22.2779H15.8731V21.1721H16.9789V18.9607H18.0846V17.8549H19.1904V16.7492H20.2961V15.6434H21.4018V14.5377H22.5076V16.7492H21.4018V18.9607H22.5076V20.0664H21.4018V22.2779H20.2961V23.3836H19.1904V24.4894H18.0846V25.5951H20.2961V24.4894H21.4018V23.3836H22.5076V22.2779H23.6133V21.1721H24.7191V15.6434H23.6133V13.432ZM13.6617 9.00901V7.90327H14.7674V9.00901H13.6617Z" fill="#E43B44"/>
<path d="M4.81573 13.432H3.70999V14.5377H4.81573V13.432Z" fill="#E43B44"/>
<path d="M5.92147 12.3262H4.81573V13.4319H5.92147V12.3262Z" fill="#E43B44"/>
<path d="M1.49851 13.4319H0.392769V16.7491H1.49851V18.9606H2.60425V21.1721H3.70999V22.2778H2.60425V23.3836H4.81573V24.4893H8.13295V22.2778H7.02721V21.1721H5.92147V20.0664H4.81573V18.9606H3.70999V17.8549H2.60425V12.3262H1.49851V13.4319Z" fill="#E43B44"/>
<path d="M11.4502 11.2205H10.3444V12.3262H11.4502V11.2205Z" fill="#E43B44"/>
<path d="M3.70999 11.2205H2.60425V12.3262H3.70999V11.2205Z" fill="#E43B44"/>
<path d="M4.81573 10.1147H3.70999V11.2205H4.81573V10.1147Z" fill="#E43B44"/>
<path d="M5.92147 9.00903H4.81573V10.1148H5.92147V9.00903Z" fill="#E43B44"/>
<path d="M7.02721 7.90332H5.92147V9.00906H7.02721V7.90332Z" fill="#E43B44"/>
</g>
<defs>
<clipPath id="clip0_352_3610">
<rect width="24.3263" height="25.432" fill="white" transform="translate(0.392769 0.163086)"/>
</clipPath>
</defs>
</svg>
