<svg width="43" height="43" viewBox="0 0 43 43" fill="none" xmlns="http://www.w3.org/2000/svg">
<path d="M4.09523 36.8569H2.04761V38.9046H4.09523V36.8569Z" fill="#FED654"/>
<path d="M6.14283 34.8096H4.09521V36.8572H6.14283V34.8096Z" fill="#FED654"/>
<path d="M8.19044 32.7617H6.14282V34.8093H8.19044V32.7617Z" fill="#FED654"/>
<path d="M10.238 30.7144H8.19043V32.762H10.238V30.7144Z" fill="#FED654"/>
<path d="M12.2857 28.6665H10.238V30.7141H12.2857V28.6665Z" fill="#FED654"/>
<path d="M14.3333 26.6191H12.2856V28.6668H14.3333V26.6191Z" fill="#FED654"/>
<path d="M16.3809 24.5713H14.3333V26.6189H16.3809V24.5713Z" fill="#FED654"/>
<path d="M18.4285 22.5239H16.3809V24.5715H18.4285V22.5239Z" fill="#FED654"/>
<path d="M38.9048 20.4761H36.8572V22.5237H38.9048V20.4761Z" fill="#ABB9CC"/>
<path d="M20.4761 20.4761H18.4285V22.5237H20.4761V20.4761Z" fill="#FED654"/>
<path d="M38.9048 18.4287H36.8572V20.4763H38.9048V18.4287Z" fill="#ABB9CC"/>
<path d="M22.5237 18.4287H20.4761V20.4763H22.5237V18.4287Z" fill="#FED654"/>
<path d="M38.9048 16.3809H36.8572V18.4285H38.9048V16.3809Z" fill="#ABB9CC"/>
<path d="M38.9048 12.2856H36.8572V14.3333H38.9048V12.2856Z" fill="#ABB9CC"/>
<path d="M36.8572 10.2383H34.8096V12.2859H36.8572V10.2383Z" fill="#ABB9CC"/>
<path d="M34.8096 8.19043H32.762V10.238H34.8096V8.19043Z" fill="#ABB9CC"/>
<path d="M32.762 6.14307H30.7144V8.19069H32.762V6.14307Z" fill="#ABB9CC"/>
<path d="M30.7144 4.09521H28.6667V6.14283H30.7144V4.09521Z" fill="#ABB9CC"/>
<path d="M28.6668 2.04785H26.6191V4.09547H28.6668V2.04785Z" fill="#ABB9CC"/>
<path d="M26.6192 14.3335H24.5715V16.3811H26.6192V14.3335Z" fill="#7786A1"/>
<path d="M32.762 12.2856V16.3809H34.8096V18.4285H36.8572V12.2856H32.762Z" fill="#7786A1"/>
<path d="M28.6668 12.2856H26.6191V14.3333H28.6668V12.2856Z" fill="#7786A1"/>
<path d="M32.7618 8.19071H30.7142V6.14309H28.6666V4.09547H26.6189V2.04785H20.4761V4.09547H22.5237V6.14309H24.5713V8.19071H26.6189V10.2383H28.6666V12.2859H30.7142V10.2383H32.7618V8.19071Z" fill="#7786A1"/>
<path d="M26.6192 20.4764H28.6668V18.4287H30.7144V14.3335H26.6192V16.3811H24.5715V18.4287H26.6192V20.4764Z" fill="#124E89"/>
<path d="M40.9524 14.3335H38.9048V24.5716H40.9524V26.6192H43V16.3811H40.9524V14.3335Z" fill="#124E89"/>
<path d="M10.2381 36.8573H12.2857V34.8097H14.3333V32.762H16.3809V30.7144H18.4285V28.6668H20.4762V26.6192H22.5238V24.5716H24.5714V22.5239H26.619V18.4287H24.5714V20.4763H22.5238V22.5239H20.4762V24.5716H18.4285V26.6192H16.3809V28.6668H14.3333V30.7144H12.2857V32.762H10.2381V34.8097H8.19045V36.8573H6.14283V38.9049H4.09521V43.0001H6.14283V40.9525H8.19045V38.9049H10.2381V36.8573Z" fill="#D77643"/>
<path d="M36.8572 18.4287H34.8096V20.4763H36.8572V18.4287Z" fill="#8B9BB4"/>
<path d="M34.8096 16.3809H32.762V18.4285H34.8096V16.3809Z" fill="#8B9BB4"/>
<path d="M38.9048 14.3335H36.8572V16.3811H38.9048V14.3335Z" fill="#8B9BB4"/>
<path d="M24.5715 14.3335H22.5239V16.3811H24.5715V14.3335Z" fill="#8B9BB4"/>
<path d="M30.7144 14.3335V16.3811H32.762V12.2859H34.8096V10.2383H30.7144V12.2859H28.6667V14.3335H30.7144Z" fill="#8B9BB4"/>
<path d="M26.6192 12.2856H24.5715V14.3333H26.6192V12.2856Z" fill="#8B9BB4"/>
<path d="M28.6668 10.2383H26.6191V12.2859H28.6668V10.2383Z" fill="#8B9BB4"/>
<path d="M26.6192 8.19043H24.5715V10.238H26.6192V8.19043Z" fill="#8B9BB4"/>
<path d="M24.5715 6.14307H22.5239V8.19069H24.5715V6.14307Z" fill="#8B9BB4"/>
<path d="M22.5237 4.09521H20.4761V6.14283H22.5237V4.09521Z" fill="#8B9BB4"/>
<path d="M18.4285 4.09524H20.4761V2.04762H26.619V0H16.3809V2.04762H18.4285V4.09524Z" fill="#8B9BB4"/>
<path d="M4.09523 38.9048H2.04761V40.9524H4.09523V38.9048Z" fill="#FDAE35"/>
<path d="M6.14283 36.8569H4.09521V38.9046H6.14283V36.8569Z" fill="#FDAE35"/>
<path d="M2.04762 36.8569H0V38.9046H2.04762V36.8569Z" fill="#FDAE35"/>
<path d="M8.19044 34.8096H6.14282V36.8572H8.19044V34.8096Z" fill="#FDAE35"/>
<path d="M4.09523 34.8096H2.04761V36.8572H4.09523V34.8096Z" fill="#FDAE35"/>
<path d="M10.238 32.7617H8.19043V34.8093H10.238V32.7617Z" fill="#FDAE35"/>
<path d="M6.14283 32.7617H4.09521V34.8093H6.14283V32.7617Z" fill="#FDAE35"/>
<path d="M12.2857 30.7144H10.238V32.762H12.2857V30.7144Z" fill="#FDAE35"/>
<path d="M8.19044 30.7144H6.14282V32.762H8.19044V30.7144Z" fill="#FDAE35"/>
<path d="M14.3333 28.6665H12.2856V30.7141H14.3333V28.6665Z" fill="#FDAE35"/>
<path d="M10.238 28.6665H8.19043V30.7141H10.238V28.6665Z" fill="#FDAE35"/>
<path d="M16.3809 26.6191H14.3333V28.6668H16.3809V26.6191Z" fill="#FDAE35"/>
<path d="M12.2857 26.6191H10.238V28.6668H12.2857V26.6191Z" fill="#FDAE35"/>
<path d="M18.4285 24.5713H16.3809V26.6189H18.4285V24.5713Z" fill="#FDAE35"/>
<path d="M14.3333 24.5713H12.2856V26.6189H14.3333V24.5713Z" fill="#FDAE35"/>
<path d="M20.4761 22.5239H18.4285V24.5715H20.4761V22.5239Z" fill="#FDAE35"/>
<path d="M16.3809 22.5239H14.3333V24.5715H16.3809V22.5239Z" fill="#FDAE35"/>
<path d="M22.5237 20.4761H20.4761V22.5237H22.5237V20.4761Z" fill="#FDAE35"/>
<path d="M18.4285 20.4761H16.3809V22.5237H18.4285V20.4761Z" fill="#FDAE35"/>
<path d="M22.5237 20.4761H24.5713V16.3809H20.4761V18.4285H22.5237V20.4761Z" fill="#FDAE35"/>
<path d="M20.4761 18.4287H18.4285V20.4763H20.4761V18.4287Z" fill="#FDAE35"/>
</svg>
