<svg width="39" height="44" viewBox="0 0 39 44" fill="none" xmlns="http://www.w3.org/2000/svg">
<g clip-path="url(#clip0_483_1601)">
<path d="M34.4119 41.2939H11.4707V43.5881H34.4119V41.2939Z" fill="#FEE761"/>
<path d="M36.706 39H34.4119V41.2941H36.706V39Z" fill="#FEE761"/>
<path d="M11.4706 39H9.17651V41.2941H11.4706V39Z" fill="#FEE761"/>
<path d="M9.17644 4.58838H6.88232V39.0001H9.17644V4.58838Z" fill="#FEE761"/>
<path d="M27.5294 9.17644H25.2352V6.88232H22.9411V9.17644H20.647V6.88232H18.3529V9.17644H16.0588V11.4706H13.7646V22.9411H16.0588V25.2353H25.2352V32.1176H18.3529V27.5294H13.7646V34.4117H16.0588V36.7059H18.3529V39H20.647V36.7059H22.9411V39H25.2352V36.7059H27.5294V34.4117H29.8235V22.9411H27.5294V20.647H18.3529V13.7647H25.2352V18.3529H29.8235V11.4706H27.5294V9.17644Z" fill="#FEE761"/>
<path d="M38.9999 4.58838H36.7058V39.0001H38.9999V4.58838Z" fill="#FEE761"/>
<path d="M36.706 2.29395H34.4119V4.58806H36.706V2.29395Z" fill="#FEE761"/>
<path d="M11.4706 2.29395H9.17651V4.58806H11.4706V2.29395Z" fill="#FEE761"/>
<path d="M34.4119 0H11.4707V2.29412H34.4119V0Z" fill="#FEE761"/>
<path d="M22.9411 36.7061H20.647V39.0002H22.9411V36.7061Z" fill="#D77643"/>
<path d="M18.353 36.7061H16.0588V39.0002H18.353V36.7061Z" fill="#D77643"/>
<path d="M16.0588 34.4116H13.7646V36.7057H16.0588V34.4116Z" fill="#D77643"/>
<path d="M13.7648 27.5293H11.4707V34.4117H13.7648V27.5293Z" fill="#D77643"/>
<path d="M6.88235 27.5293H0V29.8234H6.88235V27.5293Z" fill="#D77643"/>
<path d="M25.2353 25.2354H22.9412V32.1177H25.2353V25.2354Z" fill="#D77643"/>
<path d="M16.0588 22.9414H13.7646V25.2355H16.0588V22.9414Z" fill="#D77643"/>
<path d="M25.2353 13.7646H22.9412V18.3529H25.2353V13.7646Z" fill="#D77643"/>
<path d="M13.7648 11.4707H11.4707V22.9413H13.7648V11.4707Z" fill="#D77643"/>
<path d="M16.0588 9.17627H13.7646V11.4704H16.0588V9.17627Z" fill="#D77643"/>
<path d="M22.9411 6.88232H20.647V9.17644H22.9411V6.88232Z" fill="#D77643"/>
<path d="M18.353 6.88232H16.0588V9.17644H18.353V6.88232Z" fill="#D77643"/>
<path d="M36.706 4.58838H34.4119V39.0001H36.706V4.58838Z" fill="#D77643"/>
<path d="M34.4119 2.29395H11.4707V4.58806H34.4119V2.29395Z" fill="#D77643"/>
<path d="M4.58824 0V2.29412H2.29412V4.58824H0V22.9412H6.88235V4.58824H9.17647V2.29412H11.4706V0H4.58824Z" fill="#D77643"/>
<path d="M9.17647 39.0002H6.88235V29.8237H0V39.0002H2.29412V41.2943H4.58824V43.5884H11.4706V41.2943H9.17647V39.0002Z" fill="#BE4A2F"/>
<path d="M6.88235 22.9414H0V27.5296H6.88235V22.9414Z" fill="#BE4A2F"/>
<path d="M9.17651 39.0001H11.4706V41.2943H34.4118V4.58838H9.17651V39.0001ZM11.4706 27.5296H18.353V32.1178H22.9412V25.2354H13.7647V22.9413H11.4706V11.4707H13.7647V9.17661H16.0589V6.8825H25.2353V9.17661H27.5295V11.4707H29.8236V18.3531H22.9412V13.7648H18.353V20.6472H27.5295V22.9413H29.8236V34.4119H27.5295V36.706H25.2353V39.0001H16.0589V36.706H13.7647V34.4119H11.4706V27.5296Z" fill="#FDAE35"/>
</g>
<defs>
<clipPath id="clip0_483_1601">
<rect width="39" height="43.5882" fill="white"/>
</clipPath>
</defs>
</svg>
