<svg width="24" height="24" viewBox="0 0 24 24" fill="none" xmlns="http://www.w3.org/2000/svg">
<g clip-path="url(#clip0_352_3542)">
<path d="M11.5559 23.722H12.6617V22.6163H13.7674V21.5106H14.8731V19.2991H11.5559V23.722Z" fill="#FEE761"/>
<path d="M23.7191 0.501465H21.5076V2.71295H23.7191V0.501465Z" fill="#FEE761"/>
<path d="M14.8731 0.501465H11.5559V2.71295H14.8731V0.501465Z" fill="#FEE761"/>
<path d="M3.81573 2.71289V15.9818H4.92147V17.0875H6.02722V18.1933H7.13296V19.299H11.5559V3.81863H12.6617V2.71289H3.81573Z" fill="#124E89"/>
<path d="M11.5559 3.81873V19.2991H17.0846V18.1933H18.1904V17.0876H19.2961V15.9819H20.4018V3.81873H11.5559Z" fill="#0099DB"/>
<path d="M20.4018 2.71289H12.6617V3.81863H20.4018V2.71289Z" fill="#0B6FAE"/>
<path d="M7.13296 19.2991V18.1933H6.02722V17.0876H4.92148V15.9819H3.81574V3.81873H1.60426V17.0876H2.71V18.1933H3.81574V19.2991H4.92148V20.4048H6.02722V21.5106H10.4502V22.6163H11.5559V19.2991H7.13296Z" fill="#D77643"/>
<path d="M22.6133 2.71289H20.4018V3.81863H22.6133V2.71289Z" fill="#D77643"/>
<path d="M11.5559 0.501465H0.498512V2.71295H11.5559V0.501465Z" fill="#D77643"/>
<path d="M3.81574 2.71289H1.60426V3.81863H3.81574V2.71289Z" fill="#BE4A2F"/>
<path d="M20.4018 15.9819H19.2961V17.0876H18.1904V18.1933H17.0846V19.2991H14.8731V21.5106H18.1904V20.4048H19.2961V19.2991H20.4018V18.1933H21.5076V17.0876H22.6133V3.81873H20.4018V15.9819Z" fill="#FDAE35"/>
<path d="M21.5076 0.501465H14.8731V2.71295H21.5076V0.501465Z" fill="#FDAE35"/>
</g>
<defs>
<clipPath id="clip0_352_3542">
<rect width="23.2205" height="23.2205" fill="white" transform="translate(0.498512 0.501465)"/>
</clipPath>
</defs>
</svg>
