<svg width="25" height="25" viewBox="0 0 25 25" fill="none" xmlns="http://www.w3.org/2000/svg">
<g clip-path="url(#clip0_352_3559)">
<path d="M20.2961 12.7915H19.1904V13.8972H20.2961V12.7915Z" fill="#9BA9C0"/>
<path d="M19.1903 11.6858H18.0846V12.7915H19.1903V11.6858Z" fill="#9BA9C0"/>
<path d="M18.0846 10.5801H16.9789V11.6858H18.0846V10.5801Z" fill="#9BA9C0"/>
<path d="M16.9789 9.47437H15.8731V10.5801H16.9789V9.47437Z" fill="#9BA9C0"/>
<path d="M18.0846 8.36865H16.9789V9.47439H18.0846V8.36865Z" fill="#7986A1"/>
<path d="M15.8731 8.36865H14.7674V9.47439H15.8731V8.36865Z" fill="#9BA9C0"/>
<path d="M18.0846 7.26282H16.9789V8.36856H18.0846V7.26282Z" fill="#7986A1"/>
<path d="M14.7674 7.26282H13.6617V8.36856H14.7674V7.26282Z" fill="#9BA9C0"/>
<path d="M20.2961 6.1571H19.1904V7.26284H20.2961V6.1571Z" fill="#7986A1"/>
<path d="M13.6616 6.1571H12.5559V7.26284H13.6616V6.1571Z" fill="#9BA9C0"/>
<path d="M20.2961 5.05139H19.1904V6.15713H20.2961V5.05139Z" fill="#7986A1"/>
<path d="M22.5076 3.94568H21.4018V5.05142H22.5076V3.94568Z" fill="#7986A1"/>
<path d="M1.49851 23.849V22.7432H2.60425V21.6375H3.70999V20.5318H4.81573V19.426H5.92147V18.3203H7.02721V17.2145H8.13295V16.1088H9.23869V15.0031H10.3444V13.8973H11.4502V12.7916H12.5559V11.6858H13.6617V10.5801H12.5559V9.47437H11.4502V10.5801H10.3444V11.6858H9.23869V12.7916H8.13295V13.8973H7.02721V15.0031H5.92147V16.1088H4.81573V17.2145H3.70999V18.3203H2.60425V19.426H1.49851V20.5318H0.392769V24.9547H4.81573V23.849H1.49851Z" fill="#E9E5E1"/>
<path d="M5.92147 22.7432H4.81573V23.8489H5.92147V22.7432Z" fill="#E9E5E1"/>
<path d="M7.02721 21.6375H5.92147V22.7432H7.02721V21.6375Z" fill="#E9E5E1"/>
<path d="M8.13295 20.5317H7.02721V21.6375H8.13295V20.5317Z" fill="#E9E5E1"/>
<path d="M9.23869 19.426H8.13295V20.5318H9.23869V19.426Z" fill="#E9E5E1"/>
<path d="M10.3444 18.3203H9.23869V19.4261H10.3444V18.3203Z" fill="#E9E5E1"/>
<path d="M11.4502 17.2145H10.3444V18.3202H11.4502V17.2145Z" fill="#E9E5E1"/>
<path d="M12.5559 16.1088H11.4502V17.2145H12.5559V16.1088Z" fill="#E9E5E1"/>
<path d="M13.6616 15.0031H12.5559V16.1088H13.6616V15.0031Z" fill="#E9E5E1"/>
<path d="M14.7674 13.8973H13.6617V15.0031H14.7674V13.8973Z" fill="#E9E5E1"/>
<path d="M15.8731 12.7915H14.7674V13.8972H15.8731V12.7915Z" fill="#E9E5E1"/>
<path d="M16.9789 6.1571H15.8731V9.47432H16.9789V6.1571Z" fill="#3A4466"/>
<path d="M19.1903 3.94568H18.0846V9.47438H19.1903V3.94568Z" fill="#3A4466"/>
<path d="M21.4018 2.83984H20.2961V7.2628H21.4018V2.83984Z" fill="#3A4466"/>
<path d="M13.6617 11.6858V12.7915H12.5559V13.8973H11.4502V15.003H10.3444V16.1088H9.23869V17.2145H8.13295V18.3202H7.02721V19.426H4.81573V20.5317H3.70999V21.6375H2.60425V22.7432H1.49851V23.8489H4.81573V22.7432H5.92147V21.6375H7.02721V20.5317H8.13295V19.426H9.23869V18.3202H10.3444V17.2145H11.4502V16.1088H12.5559V15.003H13.6617V13.8973H14.7674V12.7915H15.8731V11.6858H13.6617Z" fill="#C0CBDC"/>
<path d="M13.6616 9.47437H12.5559V10.5801H13.6616V9.47437Z" fill="#C0CBDC"/>
<path d="M12.5559 5.05139H10.3444V7.26287H12.5559V5.05139Z" fill="#C0CBDC"/>
<path d="M23.6133 0.628418H20.2961V1.73416H21.4018V2.8399H22.5076V3.94564H23.6133V5.05138H24.7191V1.73416H23.6133V0.628418Z" fill="#C0CBDC"/>
<path d="M7.02721 18.3203H5.92147V19.4261H7.02721V18.3203Z" fill="#8B9BB4"/>
<path d="M8.13295 17.2145H7.02721V18.3202H8.13295V17.2145Z" fill="#8B9BB4"/>
<path d="M9.23869 16.1088H8.13295V17.2145H9.23869V16.1088Z" fill="#8B9BB4"/>
<path d="M10.3444 15.0031H9.23869V16.1088H10.3444V15.0031Z" fill="#8B9BB4"/>
<path d="M11.4502 13.8973H10.3444V15.0031H11.4502V13.8973Z" fill="#8B9BB4"/>
<path d="M19.1904 12.7915H18.0846V11.6858H16.9789V10.58H15.8731V9.4743H14.7674V8.36856H13.6617V7.26282H11.4502V8.36856H12.5559V9.4743H13.6617V10.58H14.7674V11.6858H15.8731V12.7915H16.9789V13.8973H18.0846V15.003H20.2961V13.8973H19.1904V12.7915Z" fill="#8B9BB4"/>
<path d="M12.5559 12.7915H11.4502V13.8972H12.5559V12.7915Z" fill="#8B9BB4"/>
<path d="M23.6133 3.94568H22.5076V5.05142H23.6133V3.94568Z" fill="#8B9BB4"/>
<path d="M22.5076 2.83984H21.4018V3.94558H22.5076V2.83984Z" fill="#8B9BB4"/>
<path d="M21.4018 1.73413H20.2961V2.83987H21.4018V1.73413Z" fill="#8B9BB4"/>
<path d="M13.6616 11.6858H12.5559V12.7915H13.6616V11.6858Z" fill="#5A6988"/>
<path d="M14.7674 10.5801H13.6617V11.6858H14.7674V10.5801Z" fill="#5A6988"/>
<path d="M18.0846 9.47437H16.9789V10.5801H18.0846V9.47437Z" fill="#5A6988"/>
<path d="M20.2961 7.26282H19.1904V8.36856H20.2961V7.26282Z" fill="#5A6988"/>
<path d="M15.8731 7.26282H14.7674V8.36856H15.8731V7.26282Z" fill="#5A6988"/>
<path d="M22.5076 5.05139H21.4018V6.15713H22.5076V5.05139Z" fill="#5A6988"/>
<path d="M18.0846 5.05139H16.9789V7.26287H18.0846V5.05139Z" fill="#5A6988"/>
<path d="M20.2961 2.83984H19.1904V5.05132H20.2961V2.83984Z" fill="#5A6988"/>
</g>
<defs>
<clipPath id="clip0_352_3559">
<rect width="24.3263" height="24.3263" fill="white" transform="translate(0.392769 0.628418)"/>
</clipPath>
</defs>
</svg>
