<svg width="875" height="388" viewBox="0 0 875 388" fill="none" xmlns="http://www.w3.org/2000/svg">
<path d="M178.99 359.505C178.99 359.505 187.13 341.123 193.596 325.705C147.834 324.812 124.473 302.649 124.473 302.649C124.473 302.649 128.425 303.999 135.364 305.695C135.847 306.013 136.391 306.229 136.961 306.329C138.145 306.71 139.24 306.773 140.424 307.154C149.456 309.319 158.626 310.861 167.869 311.769C185.432 313.613 203.126 313.849 220.732 312.474C250.698 310.02 279.944 302.002 306.972 288.832C322.738 281.325 337.585 272.026 351.22 261.117C363.26 252.306 374.26 242.155 384.006 230.858C384.006 230.858 374.974 262.766 334.831 287.183C348.328 297.049 364.266 308.024 364.266 308.024C437.143 285.305 451.973 229.151 451.973 229.151C422.188 122.059 350.159 48.5658 350.159 48.5658C292.261 25.9652 246.973 39.6386 246.973 39.6386L243.906 46.2239C305.243 47.8059 338.464 65.4383 338.464 65.4383C302.773 57.0177 265.78 55.6563 229.567 61.4309C206.541 65.1889 184.048 71.6915 162.568 80.7999C160.679 81.3804 158.846 82.128 157.09 83.0339C145.727 87.2721 118.666 99.4527 87.4331 124.993C76.6778 134.059 70.4694 140.097 70.4694 140.097C70.4694 140.097 90.7848 106.129 145.84 72.1758L141.391 69.1263C141.391 69.1263 95.6378 80.7735 57.6538 130.042C57.6538 130.042 33.8907 230.177 63.6759 337.269C63.4724 337.154 104.817 377.562 178.99 359.505ZM287.739 161.902C306.702 156.628 326.292 169.111 331.933 189.392C337.574 209.674 327.241 230.479 308.279 235.753C289.657 240.932 269.726 228.544 264.085 208.262C258.444 187.981 268.821 167.163 287.739 161.902ZM166.345 195.665C185.308 190.391 205.239 202.779 210.539 223.155C215.838 243.531 205.847 264.241 186.884 269.515C168.263 274.695 148.331 262.307 142.691 242.025C137.05 221.744 147.427 200.926 166.39 195.652L166.345 195.665Z" fill="#303EEA"/>
<path d="M519.222 176.161C519.222 176.161 528.998 173.333 537.08 170.82C522.529 152.789 523.516 136.517 523.516 136.517C523.516 136.517 524.279 138.489 525.88 141.731C525.914 142.022 526.008 142.303 526.155 142.556C526.392 143.139 526.725 143.584 526.962 144.167C529.063 148.374 531.451 152.431 534.108 156.31C539.11 163.719 544.779 170.655 551.044 177.033C561.75 187.851 574.38 196.579 588.285 202.769C596.327 206.438 604.766 209.166 613.434 210.901C620.769 212.701 628.286 213.66 635.838 213.761C635.838 213.761 620.528 220.647 597.993 213.033C598.563 221.478 599.496 231.229 599.496 231.229C632.029 252.086 658.626 239.554 658.626 239.554C690.447 193.144 695.49 141.294 695.49 141.294C685.403 111.491 665.359 98.3852 665.359 98.3852L661.807 99.3397C681.162 123.634 685.141 142.253 685.141 142.253C676.787 125.675 665.272 110.891 651.244 98.7317C642.291 91.0283 632.447 84.4251 621.924 79.0632C621.084 78.52 620.197 78.0526 619.274 77.6668C613.932 74.6412 600.4 68.1157 580.331 64.3219C573.315 63.1038 568.953 62.6626 568.953 62.6626C568.953 62.6626 588.735 59.4804 619.821 69.7703L619.555 67.0528C619.555 67.0528 600.145 53.1072 568.679 54.4208C568.679 54.4208 522.123 77.8072 490.302 124.218C490.28 124.102 488.075 153.285 519.222 176.161ZM631.231 153.992C639.449 159.626 640.987 171.285 634.961 180.074C628.935 188.863 617.506 191.631 609.288 185.996C601.217 180.463 599.531 168.704 605.558 159.914C611.584 151.125 623.033 148.371 631.231 153.992ZM578.622 117.921C586.84 123.556 588.526 135.316 582.352 144.004C576.178 152.692 564.897 155.561 556.679 149.926C548.609 144.393 546.923 132.633 552.949 123.844C558.975 115.054 570.424 112.3 578.642 117.935L578.622 117.921Z" fill="#303EEA"/>
<path d="M530.247 363.841C530.247 363.841 530.58 358.8 530.773 354.604C519.898 358.347 512.471 355.136 512.471 355.136C512.471 355.136 513.52 355.113 515.304 354.913C515.445 354.947 515.592 354.951 515.735 354.925C516.048 354.913 516.312 354.833 516.624 354.82C518.942 354.551 521.239 354.123 523.499 353.538C527.802 352.456 531.998 350.983 536.033 349.137C542.892 345.969 549.1 341.55 554.34 336.107C557.412 332.974 560.112 329.497 562.387 325.745C564.467 322.626 566.185 319.28 567.509 315.772C567.509 315.772 568.134 324.081 560.771 333.311C564.809 334.473 569.518 335.686 569.518 335.686C584.751 324.029 583.399 309.497 583.399 309.497C567.118 286.8 543.772 275.682 543.772 275.682C528.158 275.351 518.653 282.491 518.653 282.491L518.498 284.31C533.108 279.383 542.47 280.674 542.47 280.674C533.321 281.77 524.474 284.645 516.428 289.137C511.32 292.013 506.574 295.491 502.292 299.496C501.897 299.796 501.529 300.131 501.193 300.496C498.878 302.478 493.545 307.69 488.381 316.415C486.627 319.484 485.684 321.445 485.684 321.445C485.684 321.445 487.543 311.675 497.6 298.906L496.287 298.571C496.287 298.571 486.497 305.272 481.791 320.179C481.791 320.179 484.835 345.861 501.116 368.557C501.058 368.548 514.305 374.511 530.247 363.841ZM538.835 307.818C542.854 304.935 548.555 306.188 551.639 310.487C554.722 314.785 554.081 320.587 550.063 323.47C546.116 326.301 540.343 325.1 537.259 320.801C534.176 316.503 534.826 310.694 538.835 307.818ZM513.108 326.273C517.127 323.391 522.9 324.592 525.911 328.942C528.922 333.292 528.354 339.042 524.335 341.925C520.388 344.756 514.615 343.555 511.532 339.257C508.448 334.958 509.099 329.149 513.117 326.267L513.108 326.273Z" fill="#303EEA"/>
<path d="M819.552 128.637C819.552 128.637 821.964 126.105 823.928 123.959C816.486 121.128 813.961 116.127 813.961 116.127C813.961 116.127 814.529 116.58 815.566 117.265C815.627 117.346 815.703 117.413 815.79 117.463C815.962 117.595 816.138 117.669 816.309 117.801C817.661 118.686 819.072 119.476 820.533 120.168C823.3 121.5 826.184 122.577 829.148 123.385C834.199 124.742 839.459 125.146 844.658 124.575C847.68 124.271 850.658 123.619 853.531 122.633C856.02 121.897 858.417 120.88 860.676 119.602C860.676 119.602 857.324 124.297 849.317 125.94C850.948 128.348 852.914 131.08 852.914 131.08C866.182 131.637 871.906 123.311 871.906 123.311C873.313 104.026 865.831 87.7636 865.831 87.7636C857.676 80.6646 849.457 80.246 849.457 80.246L848.568 81.1444C858.52 85.0031 862.926 89.8403 862.926 89.8403C857.575 86.3667 851.597 83.9728 845.328 82.7932C841.337 82.0572 837.271 81.8021 833.219 82.0331C832.876 82.0173 832.532 82.0321 832.191 82.0774C830.082 82.1046 824.935 82.5112 818.322 84.8606C816.028 85.7141 814.657 86.3386 814.657 86.3386C814.657 86.3386 819.978 81.9683 830.986 79.639L830.436 78.8786C830.436 78.8786 822.26 78.1008 813.149 83.9398C813.149 83.9398 803.381 98.9433 801.973 118.229C801.947 118.198 806.346 127.242 819.552 128.637ZM848.958 102.66C852.373 102.909 854.848 106.103 854.582 109.756C854.315 113.408 851.402 116.209 847.987 115.959C844.634 115.715 842.097 112.516 842.363 108.864C842.63 105.212 845.551 102.412 848.958 102.66ZM827.097 101.065C830.512 101.314 833.049 104.512 832.721 108.16C832.393 111.808 829.541 114.613 826.126 114.364C822.773 114.119 820.236 110.921 820.502 107.269C820.769 103.616 823.69 100.816 827.105 101.066L827.097 101.065Z" fill="#303EEA"/>
</svg>
