<svg width="375" height="1571" viewBox="0 0 375 1571" fill="none" xmlns="http://www.w3.org/2000/svg">
<g style="mix-blend-mode:luminosity">
<g clip-path="url(#clip0_552_2348)">
<g style="mix-blend-mode:overlay">
<g style="mix-blend-mode:overlay">
<path d="M75.8642 1168.83L75.8642 1124.67L82.2683 1101.94L82.2683 1141.96L75.8642 1168.83Z" fill="#1C75BC"/>
</g>
<g style="mix-blend-mode:overlay">
<path d="M107.034 891.882L104.831 892.59L104.831 867.021L107.034 867.728L107.034 891.882Z" fill="#1C75BC"/>
</g>
<g style="mix-blend-mode:overlay">
<path d="M44.7659 395.408L27.1794 310.28L27.1794 234.756L44.7659 331.238L44.7659 395.408Z" fill="#1C75BC"/>
</g>
<g style="mix-blend-mode:overlay">
<path d="M114 988.979L112.574 994.039L112.574 973.546L114 969.405L114 988.979Z" fill="#1C75BC"/>
</g>
<g style="mix-blend-mode:overlay">
<path d="M102.215 838.463L99.3769 835.716L99.3769 806.636L102.215 811.216L102.215 838.463Z" fill="#1C75BC"/>
</g>
<g style="mix-blend-mode:overlay">
<path d="M112.512 827.579L110.933 825.033L110.933 803.435L112.512 806.998L112.512 827.579Z" fill="#1C75BC"/>
</g>
<g style="mix-blend-mode:overlay">
<path d="M109.055 775.847L107.096 770.157L107.096 746.122L109.055 753.077L109.055 775.847Z" fill="#1C75BC"/>
</g>
<g style="mix-blend-mode:overlay">
<path d="M75.8027 723.816L67.9061 705.977L67.9061 656.626L75.8027 679.562L75.8027 723.816Z" fill="#01FFF5"/>
</g>
<g style="mix-blend-mode:overlay">
<path d="M1.90576 833.578L-37 821.026L-37 703.922L1.90576 741.588L1.90576 833.578Z" fill="#1C75BC"/>
</g>
<g style="mix-blend-mode:overlay">
<path d="M1.90576 1202.46L-37 1290.34L-37 1173.26L1.90576 1110.49L1.90576 1202.46Z" fill="#01FFF5"/>
</g>
<g style="mix-blend-mode:overlay">
<path d="M1.9659 1571L1.9659 1479.18L27.1162 1373.67L27.1162 1449.26L1.9659 1571Z" fill="#27AAE1"/>
</g>
<g style="mix-blend-mode:overlay">
<path d="M87.6257 1008.83L82.33 1020.79L82.33 980.728L87.6257 972.183L87.6257 1008.83Z" fill="#01FFF5"/>
</g>
<g style="mix-blend-mode:overlay">
<path d="M57.8101 1188.43L44.8273 1234.52L44.8273 1170.3L57.8101 1132.59L57.8101 1188.43Z" fill="#1C75BC"/>
</g>
<g style="mix-blend-mode:overlay">
<path d="M104.769 944.275L102.278 948.292L102.278 921.087L104.769 918.675L104.769 944.275Z" fill="#1C75BC"/>
</g>
<g style="mix-blend-mode:overlay">
<path d="M99.3769 1099.49L99.3769 1070.54L102.215 1058.63L102.215 1085.75L99.3769 1099.49Z" fill="#1C75BC"/>
</g>
<g style="mix-blend-mode:overlay">
<path d="M87.6257 861.243L82.33 859.534L82.33 819.446L87.6257 824.573L87.6257 861.243Z" fill="#1C75BC"/>
</g>
<g style="mix-blend-mode:overlay">
<path d="M92.137 726.713L87.6872 713.789L87.6872 677.232L92.137 693.027L92.137 726.713Z" fill="#1C75BC"/>
</g>
<g style="mix-blend-mode:overlay">
<path d="M67.8445 1003.85L57.8717 1019.94L57.8717 964.076L67.8445 954.421L67.8445 1003.85Z" fill="#1C75BC"/>
</g>
<g style="mix-blend-mode:overlay">
<path d="M27.1162 917.668L1.9659 925.785L1.9659 833.826L27.1162 841.943L27.1162 917.668Z" fill="#1C75BC"/>
</g>
<g style="mix-blend-mode:overlay">
<path d="M67.8445 556.798L57.8717 514.96L57.8717 459.216L67.8445 507.493L67.8445 556.798Z" fill="#27AAE1"/>
</g>
<g style="mix-blend-mode:overlay">
<path d="M44.7659 782.848L27.1794 765.82L27.1794 690.146L44.7659 718.524L44.7659 782.848Z" fill="#27AAE1"/>
</g>
<g style="mix-blend-mode:overlay">
<path d="M27.1162 537.88L1.9659 464.834L1.9659 372.953L27.1162 462.227L27.1162 537.88Z" fill="#27AAE1"/>
</g>
<g style="mix-blend-mode:overlay">
<path d="M1.90575 280.183L-37 116.975L-37 -1.70062e-06L1.90575 188.317L1.90575 280.183Z" fill="#1C75BC"/>
</g>
</g>
</g>
</g>
<g style="mix-blend-mode:luminosity">
<g clip-path="url(#clip1_552_2348)">
<g style="mix-blend-mode:overlay">
<g style="mix-blend-mode:overlay">
<path d="M299.136 1168.83L299.136 1124.67L292.732 1101.94L292.732 1141.96L299.136 1168.83Z" fill="#1C75BC"/>
</g>
<g style="mix-blend-mode:overlay">
<path d="M267.966 891.882L270.169 892.59L270.169 867.021L267.966 867.728L267.966 891.882Z" fill="#1C75BC"/>
</g>
<g style="mix-blend-mode:overlay">
<path d="M330.234 395.408L347.821 310.28L347.821 234.756L330.234 331.238L330.234 395.408Z" fill="#1C75BC"/>
</g>
<g style="mix-blend-mode:overlay">
<path d="M261 988.979L262.426 994.039L262.426 973.546L261 969.405L261 988.979Z" fill="#1C75BC"/>
</g>
<g style="mix-blend-mode:overlay">
<path d="M272.785 838.463L275.623 835.716L275.623 806.636L272.785 811.216L272.785 838.463Z" fill="#1C75BC"/>
</g>
<g style="mix-blend-mode:overlay">
<path d="M262.488 827.579L264.067 825.033L264.067 803.435L262.488 806.998L262.488 827.579Z" fill="#1C75BC"/>
</g>
<g style="mix-blend-mode:overlay">
<path d="M265.945 775.847L267.904 770.157L267.904 746.122L265.945 753.077L265.945 775.847Z" fill="#1C75BC"/>
</g>
<g style="mix-blend-mode:overlay">
<path d="M299.197 723.816L307.094 705.977L307.094 656.626L299.197 679.562L299.197 723.816Z" fill="#01FFF5"/>
</g>
<g style="mix-blend-mode:overlay">
<path d="M373.094 833.578L412 821.026L412 703.922L373.094 741.588L373.094 833.578Z" fill="#1C75BC"/>
</g>
<g style="mix-blend-mode:overlay">
<path d="M373.094 1202.46L412 1290.34L412 1173.26L373.094 1110.49L373.094 1202.46Z" fill="#01FFF5"/>
</g>
<g style="mix-blend-mode:overlay">
<path d="M373.034 1571L373.034 1479.18L347.884 1373.67L347.884 1449.26L373.034 1571Z" fill="#27AAE1"/>
</g>
<g style="mix-blend-mode:overlay">
<path d="M287.374 1008.83L292.67 1020.79L292.67 980.728L287.374 972.183L287.374 1008.83Z" fill="#01FFF5"/>
</g>
<g style="mix-blend-mode:overlay">
<path d="M317.19 1188.43L330.173 1234.52L330.173 1170.3L317.19 1132.59L317.19 1188.43Z" fill="#1C75BC"/>
</g>
<g style="mix-blend-mode:overlay">
<path d="M270.231 944.275L272.722 948.292L272.722 921.087L270.231 918.675L270.231 944.275Z" fill="#1C75BC"/>
</g>
<g style="mix-blend-mode:overlay">
<path d="M275.623 1099.49L275.623 1070.54L272.785 1058.63L272.785 1085.75L275.623 1099.49Z" fill="#1C75BC"/>
</g>
<g style="mix-blend-mode:overlay">
<path d="M287.374 861.243L292.67 859.534L292.67 819.446L287.374 824.573L287.374 861.243Z" fill="#1C75BC"/>
</g>
<g style="mix-blend-mode:overlay">
<path d="M282.863 726.713L287.313 713.789L287.313 677.232L282.863 693.027L282.863 726.713Z" fill="#1C75BC"/>
</g>
<g style="mix-blend-mode:overlay">
<path d="M307.156 1003.85L317.128 1019.94L317.128 964.076L307.156 954.421L307.156 1003.85Z" fill="#1C75BC"/>
</g>
<g style="mix-blend-mode:overlay">
<path d="M347.884 917.668L373.034 925.785L373.034 833.826L347.884 841.943L347.884 917.668Z" fill="#1C75BC"/>
</g>
<g style="mix-blend-mode:overlay">
<path d="M307.156 556.798L317.128 514.96L317.128 459.216L307.156 507.493L307.156 556.798Z" fill="#27AAE1"/>
</g>
<g style="mix-blend-mode:overlay">
<path d="M330.234 782.848L347.821 765.82L347.821 690.146L330.234 718.524L330.234 782.848Z" fill="#27AAE1"/>
</g>
<g style="mix-blend-mode:overlay">
<path d="M347.884 537.88L373.034 464.834L373.034 372.953L347.884 462.227L347.884 537.88Z" fill="#27AAE1"/>
</g>
<g style="mix-blend-mode:overlay">
<path d="M373.094 280.183L412 116.975L412 -1.70062e-06L373.094 188.317L373.094 280.183Z" fill="#1C75BC"/>
</g>
</g>
</g>
</g>
<defs>
<clipPath id="clip0_552_2348">
<rect width="1571" height="151" fill="white" transform="translate(114) rotate(90)"/>
</clipPath>
<clipPath id="clip1_552_2348">
<rect width="1571" height="151" fill="white" transform="matrix(4.37114e-08 1 1 -4.37114e-08 261 0)"/>
</clipPath>
</defs>
</svg>
