<svg width="1793" height="3071" viewBox="0 0 1793 3071" fill="none" xmlns="http://www.w3.org/2000/svg">
<g filter="url(#filter0_d_483_277)">
<g style="mix-blend-mode:color-dodge" filter="url(#filter1_f_483_277)">
<g clip-path="url(#clip0_483_277)">
<g style="mix-blend-mode:overlay">
<g style="mix-blend-mode:overlay">
<path d="M513.293 2277.71L513.293 2192.18L541.623 2148.16L541.623 2225.68L513.293 2277.71Z" fill="#1C75BC"/>
</g>
<g style="mix-blend-mode:overlay">
<path d="M651.185 1741.34L641.437 1742.71L641.437 1693.19L651.185 1694.56L651.185 1741.34Z" fill="#1C75BC"/>
</g>
<g style="mix-blend-mode:overlay">
<path d="M375.718 779.8L297.918 614.93L297.918 468.66L375.718 655.52L375.718 779.8Z" fill="#1C75BC"/>
</g>
<g style="mix-blend-mode:overlay">
<path d="M682 1929.39L675.689 1939.19L675.689 1899.5L682 1891.48L682 1929.39Z" fill="#1C75BC"/>
</g>
<g style="mix-blend-mode:overlay">
<path d="M629.866 1637.88L617.309 1632.56L617.309 1576.24L629.866 1585.11L629.866 1637.88Z" fill="#1C75BC"/>
</g>
<g style="mix-blend-mode:overlay">
<path d="M675.417 1616.8L668.431 1611.87L668.431 1570.04L675.417 1576.94L675.417 1616.8Z" fill="#1C75BC"/>
</g>
<g style="mix-blend-mode:overlay">
<path d="M660.123 1516.61L651.457 1505.59L651.457 1459.04L660.123 1472.51L660.123 1516.61Z" fill="#1C75BC"/>
</g>
<g style="mix-blend-mode:overlay">
<path d="M513.02 1415.84L478.087 1381.29L478.087 1285.71L513.02 1330.13L513.02 1415.84Z" fill="#01FFF5"/>
</g>
<g style="mix-blend-mode:overlay">
<path d="M186.113 1628.42L14 1604.11L14.0001 1377.31L186.113 1450.26L186.113 1628.42Z" fill="#1C75BC"/>
</g>
<g style="mix-blend-mode:overlay">
<path d="M186.113 2342.84L14 2513.04L14 2286.3L186.113 2164.72L186.113 2342.84Z" fill="#01FFF5"/>
</g>
<g style="mix-blend-mode:overlay">
<path d="M186.379 3056.61L186.379 2878.77L297.639 2674.43L297.639 2820.83L186.379 3056.61Z" fill="#27AAE1"/>
</g>
<g style="mix-blend-mode:overlay">
<path d="M565.323 1967.83L541.896 1990.99L541.896 1913.41L565.323 1896.86L565.323 1967.83Z" fill="#01FFF5"/>
</g>
<g style="mix-blend-mode:overlay">
<path d="M433.424 2315.68L375.99 2404.93L375.99 2280.56L433.424 2207.53L433.424 2315.68Z" fill="#1C75BC"/>
</g>
<g style="mix-blend-mode:overlay">
<path d="M641.164 1842.81L630.144 1850.59L630.144 1797.9L641.164 1793.23L641.164 1842.81Z" fill="#1C75BC"/>
</g>
<g style="mix-blend-mode:overlay">
<path d="M617.309 2143.43L617.309 2087.35L629.866 2064.28L629.866 2116.81L617.309 2143.43Z" fill="#1C75BC"/>
</g>
<g style="mix-blend-mode:overlay">
<path d="M565.323 1682L541.896 1678.69L541.896 1601.05L565.323 1610.98L565.323 1682Z" fill="#1C75BC"/>
</g>
<g style="mix-blend-mode:overlay">
<path d="M585.281 1421.45L565.596 1396.42L565.596 1325.62L585.281 1356.21L585.281 1421.45Z" fill="#1C75BC"/>
</g>
<g style="mix-blend-mode:overlay">
<path d="M477.814 1958.19L433.696 1989.36L433.696 1881.16L477.814 1862.46L477.814 1958.19Z" fill="#1C75BC"/>
</g>
<g style="mix-blend-mode:overlay">
<path d="M297.64 1791.28L186.379 1807L186.379 1628.9L297.64 1644.62L297.64 1791.28Z" fill="#1C75BC"/>
</g>
<g style="mix-blend-mode:overlay">
<path d="M477.814 1092.37L433.696 1011.34L433.696 903.38L477.814 996.88L477.814 1092.37Z" fill="#27AAE1"/>
</g>
<g style="mix-blend-mode:overlay">
<path d="M375.718 1530.17L297.918 1497.19L297.918 1350.63L375.718 1405.59L375.718 1530.17Z" fill="#27AAE1"/>
</g>
<g style="mix-blend-mode:overlay">
<path d="M297.64 1055.73L186.379 914.26L186.379 736.31L297.64 909.21L297.64 1055.73Z" fill="#27AAE1"/>
</g>
<g style="mix-blend-mode:overlay">
<path d="M186.113 556.64L14.0001 240.55L14.0001 14L186.113 378.72L186.113 556.64Z" fill="#1C75BC"/>
</g>
</g>
</g>
</g>
<g style="mix-blend-mode:color-dodge" filter="url(#filter2_f_483_277)">
<g clip-path="url(#clip1_483_277)">
<g style="mix-blend-mode:overlay">
<g style="mix-blend-mode:overlay">
<path d="M1279.71 2277.71L1279.71 2192.18L1251.38 2148.16L1251.38 2225.68L1279.71 2277.71Z" fill="#1C75BC"/>
</g>
<g style="mix-blend-mode:overlay">
<path d="M1141.82 1741.34L1151.56 1742.71L1151.56 1693.19L1141.82 1694.56L1141.82 1741.34Z" fill="#1C75BC"/>
</g>
<g style="mix-blend-mode:overlay">
<path d="M1417.28 779.8L1495.08 614.93L1495.08 468.66L1417.28 655.52L1417.28 779.8Z" fill="#1C75BC"/>
</g>
<g style="mix-blend-mode:overlay">
<path d="M1111 1929.39L1117.31 1939.19L1117.31 1899.5L1111 1891.48L1111 1929.39Z" fill="#1C75BC"/>
</g>
<g style="mix-blend-mode:overlay">
<path d="M1163.13 1637.88L1175.69 1632.56L1175.69 1576.24L1163.13 1585.11L1163.13 1637.88Z" fill="#1C75BC"/>
</g>
<g style="mix-blend-mode:overlay">
<path d="M1117.58 1616.8L1124.57 1611.87L1124.57 1570.04L1117.58 1576.94L1117.58 1616.8Z" fill="#1C75BC"/>
</g>
<g style="mix-blend-mode:overlay">
<path d="M1132.88 1516.61L1141.54 1505.59L1141.54 1459.04L1132.88 1472.51L1132.88 1516.61Z" fill="#1C75BC"/>
</g>
<g style="mix-blend-mode:overlay">
<path d="M1279.98 1415.84L1314.91 1381.29L1314.91 1285.71L1279.98 1330.13L1279.98 1415.84Z" fill="#01FFF5"/>
</g>
<g style="mix-blend-mode:overlay">
<path d="M1606.89 1628.42L1779 1604.11L1779 1377.31L1606.89 1450.26L1606.89 1628.42Z" fill="#1C75BC"/>
</g>
<g style="mix-blend-mode:overlay">
<path d="M1606.89 2342.84L1779 2513.04L1779 2286.3L1606.89 2164.72L1606.89 2342.84Z" fill="#01FFF5"/>
</g>
<g style="mix-blend-mode:overlay">
<path d="M1606.62 3056.61L1606.62 2878.77L1495.36 2674.43L1495.36 2820.83L1606.62 3056.61Z" fill="#27AAE1"/>
</g>
<g style="mix-blend-mode:overlay">
<path d="M1227.68 1967.83L1251.1 1990.99L1251.1 1913.41L1227.68 1896.86L1227.68 1967.83Z" fill="#01FFF5"/>
</g>
<g style="mix-blend-mode:overlay">
<path d="M1359.58 2315.68L1417.01 2404.93L1417.01 2280.56L1359.58 2207.53L1359.58 2315.68Z" fill="#1C75BC"/>
</g>
<g style="mix-blend-mode:overlay">
<path d="M1151.84 1842.81L1162.86 1850.59L1162.86 1797.9L1151.84 1793.23L1151.84 1842.81Z" fill="#1C75BC"/>
</g>
<g style="mix-blend-mode:overlay">
<path d="M1175.69 2143.43L1175.69 2087.35L1163.13 2064.28L1163.13 2116.81L1175.69 2143.43Z" fill="#1C75BC"/>
</g>
<g style="mix-blend-mode:overlay">
<path d="M1227.68 1682L1251.1 1678.69L1251.1 1601.05L1227.68 1610.98L1227.68 1682Z" fill="#1C75BC"/>
</g>
<g style="mix-blend-mode:overlay">
<path d="M1207.72 1421.45L1227.4 1396.42L1227.4 1325.62L1207.72 1356.21L1207.72 1421.45Z" fill="#1C75BC"/>
</g>
<g style="mix-blend-mode:overlay">
<path d="M1315.19 1958.19L1359.3 1989.36L1359.3 1881.16L1315.19 1862.46L1315.19 1958.19Z" fill="#1C75BC"/>
</g>
<g style="mix-blend-mode:overlay">
<path d="M1495.36 1791.28L1606.62 1807L1606.62 1628.9L1495.36 1644.62L1495.36 1791.28Z" fill="#1C75BC"/>
</g>
<g style="mix-blend-mode:overlay">
<path d="M1315.19 1092.37L1359.3 1011.34L1359.3 903.38L1315.19 996.88L1315.19 1092.37Z" fill="#27AAE1"/>
</g>
<g style="mix-blend-mode:overlay">
<path d="M1417.28 1530.17L1495.08 1497.19L1495.08 1350.63L1417.28 1405.59L1417.28 1530.17Z" fill="#27AAE1"/>
</g>
<g style="mix-blend-mode:overlay">
<path d="M1495.36 1055.73L1606.62 914.26L1606.62 736.31L1495.36 909.21L1495.36 1055.73Z" fill="#27AAE1"/>
</g>
<g style="mix-blend-mode:overlay">
<path d="M1606.89 556.64L1779 240.55L1779 14L1606.89 378.72L1606.89 556.64Z" fill="#1C75BC"/>
</g>
</g>
</g>
</g>
</g>
<defs>
<filter id="filter0_d_483_277" x="10" y="14" width="1773" height="3050.61" filterUnits="userSpaceOnUse" color-interpolation-filters="sRGB">
<feFlood flood-opacity="0" result="BackgroundImageFix"/>
<feColorMatrix in="SourceAlpha" type="matrix" values="0 0 0 0 0 0 0 0 0 0 0 0 0 0 0 0 0 0 127 0" result="hardAlpha"/>
<feOffset dy="4"/>
<feGaussianBlur stdDeviation="2"/>
<feComposite in2="hardAlpha" operator="out"/>
<feColorMatrix type="matrix" values="0 0 0 0 0 0 0 0 0 0 0 0 0 0 0 0 0 0 0.25 0"/>
<feBlend mode="normal" in2="BackgroundImageFix" result="effect1_dropShadow_483_277"/>
<feBlend mode="normal" in="SourceGraphic" in2="effect1_dropShadow_483_277" result="shape"/>
</filter>
<filter id="filter1_f_483_277" x="0" y="0" width="696" height="3070.61" filterUnits="userSpaceOnUse" color-interpolation-filters="sRGB">
<feFlood flood-opacity="0" result="BackgroundImageFix"/>
<feBlend mode="normal" in="SourceGraphic" in2="BackgroundImageFix" result="shape"/>
<feGaussianBlur stdDeviation="7" result="effect1_foregroundBlur_483_277"/>
</filter>
<filter id="filter2_f_483_277" x="1097" y="0" width="696" height="3070.61" filterUnits="userSpaceOnUse" color-interpolation-filters="sRGB">
<feFlood flood-opacity="0" result="BackgroundImageFix"/>
<feBlend mode="normal" in="SourceGraphic" in2="BackgroundImageFix" result="shape"/>
<feGaussianBlur stdDeviation="7" result="effect1_foregroundBlur_483_277"/>
</filter>
<clipPath id="clip0_483_277">
<rect width="3042.61" height="668" fill="white" transform="translate(682 14) rotate(90)"/>
</clipPath>
<clipPath id="clip1_483_277">
<rect width="3042.61" height="668" fill="white" transform="matrix(4.37114e-08 1 1 -4.37114e-08 1111 14)"/>
</clipPath>
</defs>
</svg>
