<svg width="1765" height="2589" viewBox="0 0 1765 2589" fill="none" xmlns="http://www.w3.org/2000/svg">
<g style="mix-blend-mode:luminosity">
<g clip-path="url(#clip0_524_8)">
<g style="mix-blend-mode:overlay">
<g style="mix-blend-mode:overlay">
<path d="M499.293 2263.71L499.293 2178.18L527.623 2134.16L527.623 2211.68L499.293 2263.71Z" fill="#1C75BC"/>
</g>
<g style="mix-blend-mode:overlay">
<path d="M637.185 1727.34L627.437 1728.71L627.437 1679.19L637.185 1680.56L637.185 1727.34Z" fill="#1C75BC"/>
</g>
<g style="mix-blend-mode:overlay">
<path d="M361.718 765.8L283.918 600.93L283.918 454.66L361.718 641.52L361.718 765.8Z" fill="#1C75BC"/>
</g>
<g style="mix-blend-mode:overlay">
<path d="M668 1915.39L661.689 1925.19L661.689 1885.5L668 1877.48L668 1915.39Z" fill="#1C75BC"/>
</g>
<g style="mix-blend-mode:overlay">
<path d="M615.866 1623.88L603.309 1618.56L603.309 1562.24L615.866 1571.11L615.866 1623.88Z" fill="#1C75BC"/>
</g>
<g style="mix-blend-mode:overlay">
<path d="M661.417 1602.8L654.431 1597.87L654.431 1556.04L661.417 1562.94L661.417 1602.8Z" fill="#1C75BC"/>
</g>
<g style="mix-blend-mode:overlay">
<path d="M646.123 1502.61L637.457 1491.59L637.457 1445.04L646.123 1458.51L646.123 1502.61Z" fill="#1C75BC"/>
</g>
<g style="mix-blend-mode:overlay">
<path d="M499.02 1401.84L464.087 1367.29L464.087 1271.71L499.02 1316.13L499.02 1401.84Z" fill="#01FFF5"/>
</g>
<g style="mix-blend-mode:overlay">
<path d="M172.113 1614.42L5.11214e-05 1590.11L6.10352e-05 1363.31L172.113 1436.26L172.113 1614.42Z" fill="#1C75BC"/>
</g>
<g style="mix-blend-mode:overlay">
<path d="M172.113 2328.84L1.5292e-05 2499.04L2.52031e-05 2272.3L172.113 2150.72L172.113 2328.84Z" fill="#01FFF5"/>
</g>
<g style="mix-blend-mode:overlay">
<path d="M551.323 1953.83L527.896 1976.99L527.896 1899.41L551.323 1882.86L551.323 1953.83Z" fill="#01FFF5"/>
</g>
<g style="mix-blend-mode:overlay">
<path d="M419.424 2301.68L361.99 2390.93L361.99 2266.56L419.424 2193.53L419.424 2301.68Z" fill="#1C75BC"/>
</g>
<g style="mix-blend-mode:overlay">
<path d="M627.164 1828.81L616.144 1836.59L616.144 1783.9L627.164 1779.23L627.164 1828.81Z" fill="#1C75BC"/>
</g>
<g style="mix-blend-mode:overlay">
<path d="M603.309 2129.43L603.309 2073.35L615.866 2050.28L615.866 2102.81L603.309 2129.43Z" fill="#1C75BC"/>
</g>
<g style="mix-blend-mode:overlay">
<path d="M551.323 1668L527.896 1664.69L527.896 1587.05L551.323 1596.98L551.323 1668Z" fill="#1C75BC"/>
</g>
<g style="mix-blend-mode:overlay">
<path d="M571.281 1407.45L551.596 1382.42L551.596 1311.62L571.281 1342.21L571.281 1407.45Z" fill="#1C75BC"/>
</g>
<g style="mix-blend-mode:overlay">
<path d="M463.814 1944.19L419.696 1975.36L419.696 1867.16L463.814 1848.46L463.814 1944.19Z" fill="#1C75BC"/>
</g>
<g style="mix-blend-mode:overlay">
<path d="M283.64 1777.28L172.379 1793L172.379 1614.9L283.64 1630.62L283.64 1777.28Z" fill="#1C75BC"/>
</g>
<g style="mix-blend-mode:overlay">
<path d="M463.814 1078.37L419.696 997.34L419.696 889.38L463.814 982.88L463.814 1078.37Z" fill="#27AAE1"/>
</g>
<g style="mix-blend-mode:overlay">
<path d="M361.718 1516.17L283.918 1483.19L283.918 1336.63L361.718 1391.59L361.718 1516.17Z" fill="#27AAE1"/>
</g>
<g style="mix-blend-mode:overlay">
<path d="M283.64 1041.73L172.379 900.26L172.379 722.31L283.64 895.21L283.64 1041.73Z" fill="#27AAE1"/>
</g>
<g style="mix-blend-mode:overlay">
<path d="M172.113 542.64L0.000112167 226.55L0.00012207 -7.52328e-06L172.113 364.72L172.113 542.64Z" fill="#1C75BC"/>
</g>
</g>
</g>
</g>
<g style="mix-blend-mode:luminosity">
<g clip-path="url(#clip1_524_8)">
<g style="mix-blend-mode:overlay">
<g style="mix-blend-mode:overlay">
<path d="M1265.71 2263.71L1265.71 2178.18L1237.38 2134.16L1237.38 2211.68L1265.71 2263.71Z" fill="#1C75BC"/>
</g>
<g style="mix-blend-mode:overlay">
<path d="M1127.82 1727.34L1137.56 1728.71L1137.56 1679.19L1127.82 1680.56L1127.82 1727.34Z" fill="#1C75BC"/>
</g>
<g style="mix-blend-mode:overlay">
<path d="M1403.28 765.8L1481.08 600.93L1481.08 454.66L1403.28 641.52L1403.28 765.8Z" fill="#1C75BC"/>
</g>
<g style="mix-blend-mode:overlay">
<path d="M1097 1915.39L1103.31 1925.19L1103.31 1885.5L1097 1877.48L1097 1915.39Z" fill="#1C75BC"/>
</g>
<g style="mix-blend-mode:overlay">
<path d="M1149.13 1623.88L1161.69 1618.56L1161.69 1562.24L1149.13 1571.11L1149.13 1623.88Z" fill="#1C75BC"/>
</g>
<g style="mix-blend-mode:overlay">
<path d="M1103.58 1602.8L1110.57 1597.87L1110.57 1556.04L1103.58 1562.94L1103.58 1602.8Z" fill="#1C75BC"/>
</g>
<g style="mix-blend-mode:overlay">
<path d="M1118.88 1502.61L1127.54 1491.59L1127.54 1445.04L1118.88 1458.51L1118.88 1502.61Z" fill="#1C75BC"/>
</g>
<g style="mix-blend-mode:overlay">
<path d="M1265.98 1401.84L1300.91 1367.29L1300.91 1271.71L1265.98 1316.13L1265.98 1401.84Z" fill="#01FFF5"/>
</g>
<g style="mix-blend-mode:overlay">
<path d="M1592.89 1614.42L1765 1590.11L1765 1363.31L1592.89 1436.26L1592.89 1614.42Z" fill="#1C75BC"/>
</g>
<g style="mix-blend-mode:overlay">
<path d="M1592.89 2328.84L1765 2499.04L1765 2272.3L1592.89 2150.72L1592.89 2328.84Z" fill="#01FFF5"/>
</g>
<g style="mix-blend-mode:overlay">
<path d="M1213.68 1953.83L1237.1 1976.99L1237.1 1899.41L1213.68 1882.86L1213.68 1953.83Z" fill="#01FFF5"/>
</g>
<g style="mix-blend-mode:overlay">
<path d="M1345.58 2301.68L1403.01 2390.93L1403.01 2266.56L1345.58 2193.53L1345.58 2301.68Z" fill="#1C75BC"/>
</g>
<g style="mix-blend-mode:overlay">
<path d="M1137.84 1828.81L1148.86 1836.59L1148.86 1783.9L1137.84 1779.23L1137.84 1828.81Z" fill="#1C75BC"/>
</g>
<g style="mix-blend-mode:overlay">
<path d="M1161.69 2129.43L1161.69 2073.35L1149.13 2050.28L1149.13 2102.81L1161.69 2129.43Z" fill="#1C75BC"/>
</g>
<g style="mix-blend-mode:overlay">
<path d="M1213.68 1668L1237.1 1664.69L1237.1 1587.05L1213.68 1596.98L1213.68 1668Z" fill="#1C75BC"/>
</g>
<g style="mix-blend-mode:overlay">
<path d="M1193.72 1407.45L1213.4 1382.42L1213.4 1311.62L1193.72 1342.21L1193.72 1407.45Z" fill="#1C75BC"/>
</g>
<g style="mix-blend-mode:overlay">
<path d="M1301.19 1944.19L1345.3 1975.36L1345.3 1867.16L1301.19 1848.46L1301.19 1944.19Z" fill="#1C75BC"/>
</g>
<g style="mix-blend-mode:overlay">
<path d="M1481.36 1777.28L1592.62 1793L1592.62 1614.9L1481.36 1630.62L1481.36 1777.28Z" fill="#1C75BC"/>
</g>
<g style="mix-blend-mode:overlay">
<path d="M1301.19 1078.37L1345.3 997.34L1345.3 889.38L1301.19 982.88L1301.19 1078.37Z" fill="#27AAE1"/>
</g>
<g style="mix-blend-mode:overlay">
<path d="M1403.28 1516.17L1481.08 1483.19L1481.08 1336.63L1403.28 1391.59L1403.28 1516.17Z" fill="#27AAE1"/>
</g>
<g style="mix-blend-mode:overlay">
<path d="M1481.36 1041.73L1592.62 900.26L1592.62 722.31L1481.36 895.21L1481.36 1041.73Z" fill="#27AAE1"/>
</g>
<g style="mix-blend-mode:overlay">
<path d="M1592.89 542.64L1765 226.55L1765 -7.52328e-06L1592.89 364.72L1592.89 542.64Z" fill="#1C75BC"/>
</g>
</g>
</g>
</g>
<defs>
<clipPath id="clip0_524_8">
<rect width="3042.61" height="668" fill="white" transform="translate(668) rotate(90)"/>
</clipPath>
<clipPath id="clip1_524_8">
<rect width="3042.61" height="668" fill="white" transform="matrix(4.37114e-08 1 1 -4.37114e-08 1097 0)"/>
</clipPath>
</defs>
</svg>
