<svg width="93" height="70" viewBox="0 0 93 70" fill="none" xmlns="http://www.w3.org/2000/svg">
<g style="mix-blend-mode:soft-light">
<path d="M14.202 65.274L13.1552 66.9781L14.202 65.274ZM3.862 53.524L2.05187 54.3745L2.05807 54.3877L2.06446 54.4008L3.862 53.524ZM3.862 16.77L2.06029 15.9017L2.05587 15.911L3.862 16.77ZM14.202 4.926L15.2488 6.63015H15.2488L14.202 4.926ZM44.188 4.926L43.1412 6.63015L44.188 4.926ZM54.434 16.77L52.6239 17.6205L52.6301 17.6337L52.6365 17.6468L54.434 16.77ZM54.434 53.524L52.6323 52.6557L52.6279 52.665L54.434 53.524ZM44.188 65.274L45.2348 66.9781L44.188 65.274ZM36.668 49.576L34.9623 48.5317L34.9562 48.5418L36.668 49.576ZM36.668 20.718L34.9468 21.7366L34.9592 21.7575L34.972 21.778L36.668 20.718ZM21.628 20.718L19.9223 19.6737L19.9162 19.6838L21.628 20.718ZM21.628 49.576L19.9068 50.5946L19.9192 50.6155L19.932 50.636L21.628 49.576ZM29.242 67.316C23.9351 67.316 19.2909 66.0528 15.2488 63.5698L13.1552 66.9781C17.8865 69.8845 23.2689 71.316 29.242 71.316V67.316ZM15.2488 63.5698C11.221 61.0956 8.01867 57.4834 5.65954 52.6471L2.06446 54.4008C4.71867 59.842 8.40965 64.063 13.1552 66.9781L15.2488 63.5698ZM5.67213 52.6735C3.37874 47.7927 2.196 41.954 2.196 35.1H-1.804C-1.804 42.4086 -0.542743 48.8527 2.05187 54.3745L5.67213 52.6735ZM2.196 35.1C2.196 28.245 3.37905 22.4419 5.66813 17.629L2.05587 15.911C-0.543054 21.3754 -1.804 27.7923 -1.804 35.1H2.196ZM5.66369 17.6383C8.02486 12.7388 11.2273 9.10051 15.2488 6.63015L13.1552 3.22185C8.40335 6.14082 4.71247 10.3985 2.06031 15.9017L5.66369 17.6383ZM15.2488 6.63015C19.2909 4.14718 23.9351 2.884 29.242 2.884V-1.116C23.2689 -1.116 17.8865 0.315475 13.1552 3.22185L15.2488 6.63015ZM29.242 2.884C34.4817 2.884 39.0956 4.145 43.1412 6.63015L45.2348 3.22185C40.5071 0.317663 35.157 -1.116 29.242 -1.116V2.884ZM43.1412 6.63015C47.1578 9.0975 50.3257 12.7296 52.6239 17.6205L56.2441 15.9195C53.6543 10.4078 49.9916 6.14383 45.2348 3.22185L43.1412 6.63015ZM52.6365 17.6468C54.982 22.4551 56.194 28.2516 56.194 35.1H60.194C60.194 27.7857 58.8994 21.3622 56.2315 15.8932L52.6365 17.6468ZM56.194 35.1C56.194 41.9474 54.9823 47.7795 52.6323 52.6557L56.2357 54.3923C58.8991 48.8658 60.194 42.4152 60.194 35.1H56.194ZM52.6279 52.665C50.3318 57.4926 47.1641 61.0986 43.1412 63.5698L45.2348 66.9781C49.9852 64.0601 53.6482 59.8327 56.2401 54.383L52.6279 52.665ZM43.1412 63.5698C39.0956 66.055 34.4817 67.316 29.242 67.316V71.316C35.157 71.316 40.5071 69.8823 45.2348 66.9781L43.1412 63.5698ZM29.242 56.088C33.1718 56.088 36.253 54.1305 38.3798 50.6102L34.9562 48.5418C33.4484 51.0375 31.5789 52.088 29.242 52.088V56.088ZM38.3737 50.6203C40.5477 47.0695 41.488 41.7876 41.488 35.1H37.488C37.488 41.5724 36.5483 45.9412 34.9623 48.5317L38.3737 50.6203ZM41.488 35.1C41.488 28.418 40.5497 23.1551 38.364 19.658L34.972 21.778C36.5463 24.2969 37.488 28.622 37.488 35.1H41.488ZM38.3892 19.6994C36.2715 16.1212 33.192 14.112 29.242 14.112V18.112C31.5587 18.112 33.4298 19.1734 34.9468 21.7366L38.3892 19.6994ZM29.242 14.112C25.251 14.112 22.111 16.0988 19.9223 19.6737L23.3337 21.7623C24.905 19.1959 26.841 18.112 29.242 18.112V14.112ZM19.9162 19.6838C17.8079 23.1733 16.902 28.4242 16.902 35.1H20.902C20.902 28.6158 21.8134 24.2787 23.3398 21.7522L19.9162 19.6838ZM16.902 35.1C16.902 41.7813 17.8098 47.0514 19.9068 50.5946L23.3492 48.5574C21.8115 45.9592 20.902 41.5787 20.902 35.1H16.902ZM19.932 50.636C22.1296 54.1522 25.2707 56.088 29.242 56.088V52.088C26.8213 52.088 24.8864 51.0158 23.324 48.516L19.932 50.636ZM92.0112 2.2H94.0112V0.199995H92.0112V2.2ZM92.0112 68V70H94.0112V68H92.0112ZM73.3992 68H71.3992V70H73.3992V68ZM73.3992 16.582H75.3992V14.582H73.3992V16.582ZM61.1792 16.582H59.1792V18.582H61.1792V16.582ZM61.1792 2.2V0.199995H59.1792V2.2H61.1792ZM90.0112 2.2V68H94.0112V2.2H90.0112ZM92.0112 66H73.3992V70H92.0112V66ZM75.3992 68V16.582H71.3992V68H75.3992ZM73.3992 14.582H61.1792V18.582H73.3992V14.582ZM63.1792 16.582V2.2H59.1792V16.582H63.1792ZM61.1792 4.2H92.0112V0.199995H61.1792V4.2Z" fill="white"/>
</g>
</svg>
