<svg width="115" height="70" viewBox="0 0 115 70" fill="none" xmlns="http://www.w3.org/2000/svg">
<g style="mix-blend-mode:soft-light">
<path d="M14.202 65.274L13.1552 66.9781L14.202 65.274ZM3.862 53.524L2.05187 54.3745L2.05807 54.3877L2.06446 54.4008L3.862 53.524ZM3.862 16.77L2.06029 15.9017L2.05587 15.911L3.862 16.77ZM14.202 4.926L15.2488 6.63015H15.2488L14.202 4.926ZM44.188 4.926L43.1412 6.63015L44.188 4.926ZM54.434 16.77L52.6239 17.6205L52.6301 17.6337L52.6365 17.6468L54.434 16.77ZM54.434 53.524L52.6323 52.6557L52.6279 52.665L54.434 53.524ZM44.188 65.274L45.2348 66.9781L44.188 65.274ZM36.668 49.576L34.9623 48.5317L34.9562 48.5418L36.668 49.576ZM36.668 20.718L34.9468 21.7366L34.9592 21.7575L34.972 21.778L36.668 20.718ZM21.628 20.718L19.9223 19.6737L19.9162 19.6838L21.628 20.718ZM21.628 49.576L19.9068 50.5946L19.9192 50.6155L19.932 50.636L21.628 49.576ZM29.242 67.316C23.9351 67.316 19.2909 66.0528 15.2488 63.5698L13.1552 66.9781C17.8865 69.8845 23.2689 71.316 29.242 71.316V67.316ZM15.2488 63.5698C11.221 61.0956 8.01867 57.4834 5.65954 52.6471L2.06446 54.4008C4.71867 59.842 8.40965 64.063 13.1552 66.9781L15.2488 63.5698ZM5.67213 52.6735C3.37874 47.7927 2.196 41.954 2.196 35.1H-1.804C-1.804 42.4086 -0.542743 48.8527 2.05187 54.3745L5.67213 52.6735ZM2.196 35.1C2.196 28.245 3.37905 22.4419 5.66813 17.629L2.05587 15.911C-0.543054 21.3754 -1.804 27.7923 -1.804 35.1H2.196ZM5.66369 17.6383C8.02486 12.7388 11.2273 9.10051 15.2488 6.63015L13.1552 3.22185C8.40335 6.14082 4.71247 10.3985 2.06031 15.9017L5.66369 17.6383ZM15.2488 6.63015C19.2909 4.14718 23.9351 2.884 29.242 2.884V-1.116C23.2689 -1.116 17.8865 0.315475 13.1552 3.22185L15.2488 6.63015ZM29.242 2.884C34.4817 2.884 39.0956 4.145 43.1412 6.63015L45.2348 3.22185C40.5071 0.317663 35.157 -1.116 29.242 -1.116V2.884ZM43.1412 6.63015C47.1578 9.0975 50.3257 12.7296 52.6239 17.6205L56.2441 15.9195C53.6543 10.4078 49.9916 6.14383 45.2348 3.22185L43.1412 6.63015ZM52.6365 17.6468C54.982 22.4551 56.194 28.2516 56.194 35.1H60.194C60.194 27.7857 58.8994 21.3622 56.2315 15.8932L52.6365 17.6468ZM56.194 35.1C56.194 41.9474 54.9823 47.7795 52.6323 52.6557L56.2357 54.3923C58.8991 48.8658 60.194 42.4152 60.194 35.1H56.194ZM52.6279 52.665C50.3318 57.4926 47.1641 61.0986 43.1412 63.5698L45.2348 66.9781C49.9852 64.0601 53.6482 59.8327 56.2401 54.383L52.6279 52.665ZM43.1412 63.5698C39.0956 66.055 34.4817 67.316 29.242 67.316V71.316C35.157 71.316 40.5071 69.8823 45.2348 66.9781L43.1412 63.5698ZM29.242 56.088C33.1718 56.088 36.253 54.1305 38.3798 50.6102L34.9562 48.5418C33.4484 51.0375 31.5789 52.088 29.242 52.088V56.088ZM38.3737 50.6203C40.5477 47.0695 41.488 41.7876 41.488 35.1H37.488C37.488 41.5724 36.5483 45.9412 34.9623 48.5317L38.3737 50.6203ZM41.488 35.1C41.488 28.418 40.5497 23.1551 38.364 19.658L34.972 21.778C36.5463 24.2969 37.488 28.622 37.488 35.1H41.488ZM38.3892 19.6994C36.2715 16.1212 33.192 14.112 29.242 14.112V18.112C31.5587 18.112 33.4298 19.1734 34.9468 21.7366L38.3892 19.6994ZM29.242 14.112C25.251 14.112 22.111 16.0988 19.9223 19.6737L23.3337 21.7623C24.905 19.1959 26.841 18.112 29.242 18.112V14.112ZM19.9162 19.6838C17.8079 23.1733 16.902 28.4242 16.902 35.1H20.902C20.902 28.6158 21.8134 24.2787 23.3398 21.7522L19.9162 19.6838ZM16.902 35.1C16.902 41.7813 17.8098 47.0514 19.9068 50.5946L23.3492 48.5574C21.8115 45.9592 20.902 41.5787 20.902 35.1H16.902ZM19.932 50.636C22.1296 54.1522 25.2707 56.088 29.242 56.088V52.088C26.8213 52.088 24.8864 51.0158 23.324 48.516L19.932 50.636ZM114.665 53.242H116.665V51.242H114.665V53.242ZM114.665 68V70H116.665V68H114.665ZM63.4352 68H61.4352V70H63.4352V68ZM63.4352 56.344L62.0692 54.8832L61.4352 55.476V56.344H63.4352ZM88.0632 33.314L89.4293 34.7748L89.4387 34.7659L88.0632 33.314ZM92.8572 27.58L94.6317 28.5027L94.639 28.4886L94.6461 28.4744L92.8572 27.58ZM91.9172 17.71L90.6435 19.2519L91.9172 17.71ZM78.8512 17.616L79.7895 19.3822L79.7993 19.3771L79.8089 19.3718L78.8512 17.616ZM73.8692 22.316L72.8949 24.0626L74.5432 24.9821L75.5566 23.3897L73.8692 22.316ZM60.0512 14.608L58.3385 13.5753L57.2703 15.3469L59.0769 16.3546L60.0512 14.608ZM70.8612 4.55L71.7937 6.31932H71.7937L70.8612 4.55ZM100.565 3.328L99.781 5.16788L99.7918 5.17239L100.565 3.328ZM109.589 10.378L107.946 11.5182L107.959 11.5374L107.973 11.5563L109.589 10.378ZM110.529 31.058L108.733 30.1777L108.73 30.1851L108.726 30.1925L110.529 31.058ZM101.693 41.774L100.344 40.2979L100.336 40.3052L101.693 41.774ZM89.2852 53.242L87.9277 51.7732L84.1747 55.242H89.2852V53.242ZM112.665 53.242V68H116.665V53.242H112.665ZM114.665 66H63.4352V70H114.665V66ZM65.4352 68V56.344H61.4352V68H65.4352ZM64.8013 57.8048L89.4293 34.7748L86.6972 31.8532L62.0692 54.8832L64.8013 57.8048ZM89.4387 34.7659C91.8679 32.4646 93.661 30.3694 94.6317 28.5027L91.0828 26.6573C90.4242 27.9239 89.0213 29.6514 86.6877 31.8621L89.4387 34.7659ZM94.6461 28.4744C95.583 26.6005 96.0792 24.6669 96.0792 22.692H92.0792C92.0792 23.9758 91.7608 25.3008 91.0684 26.6856L94.6461 28.4744ZM96.0792 22.692C96.0792 20.0583 95.1598 17.7945 93.191 16.1681L90.6435 19.2519C91.5573 20.0068 92.0792 21.0643 92.0792 22.692H96.0792ZM93.191 16.1681C91.2552 14.569 88.6277 13.924 85.6192 13.924V17.924C88.1254 17.924 89.6966 18.4697 90.6435 19.2519L93.191 16.1681ZM85.6192 13.924C82.8536 13.924 80.2665 14.5658 77.8935 15.8602L79.8089 19.3718C81.5719 18.4102 83.4968 17.924 85.6192 17.924V13.924ZM77.9129 15.8498C75.5782 17.0901 73.6683 18.9065 72.1819 21.2422L75.5566 23.3897C76.7021 21.5895 78.1136 20.2726 79.7895 19.3822L77.9129 15.8498ZM74.8435 20.5694L61.0255 12.8614L59.0769 16.3546L72.8949 24.0626L74.8435 20.5694ZM61.764 15.6407C64.135 11.7084 67.4607 8.60291 71.7937 6.31932L69.9288 2.78068C64.9871 5.38508 61.1062 8.98498 58.3385 13.5753L61.764 15.6407ZM71.7937 6.31932C76.0898 4.05519 81.24 2.884 87.3112 2.884V-1.116C80.7238 -1.116 74.9074 0.156805 69.9288 2.78068L71.7937 6.31932ZM87.3112 2.884C92.1095 2.884 96.2519 3.66362 99.781 5.16784L101.349 1.48815C97.2332 -0.266296 92.5397 -1.116 87.3112 -1.116V2.884ZM99.7918 5.17239C103.372 6.6738 106.059 8.7988 107.946 11.5182L111.232 9.23783C108.858 5.81586 105.529 3.24085 101.339 1.48361L99.7918 5.17239ZM107.973 11.5563C109.897 14.1951 110.879 17.2842 110.879 20.906H114.879C114.879 16.5065 113.668 12.5769 111.205 9.19965L107.973 11.5563ZM110.879 20.906C110.879 24.174 110.165 27.2567 108.733 30.1777L112.325 31.9383C114.027 28.4673 114.879 24.782 114.879 20.906H110.879ZM108.726 30.1925C107.385 32.9873 104.656 36.3549 100.344 40.2979L103.043 43.2501C107.503 39.1718 110.666 35.3953 112.332 31.9235L108.726 30.1925ZM100.336 40.3052L87.9277 51.7732L90.6427 54.7108L103.051 43.2428L100.336 40.3052ZM89.2852 55.242H114.665V51.242H89.2852V55.242Z" fill="white"/>
</g>
</svg>
