<svg width="115" height="70" viewBox="0 0 115 70" fill="none" xmlns="http://www.w3.org/2000/svg">
<g style="mix-blend-mode:soft-light">
<path d="M14.202 65.274L13.1552 66.9781L14.202 65.274ZM3.862 53.524L2.05187 54.3745L2.05807 54.3877L2.06446 54.4008L3.862 53.524ZM3.862 16.77L2.06029 15.9017L2.05587 15.911L3.862 16.77ZM14.202 4.926L15.2488 6.63015H15.2488L14.202 4.926ZM44.188 4.926L43.1412 6.63015L44.188 4.926ZM54.434 16.77L52.6239 17.6205L52.6301 17.6337L52.6365 17.6468L54.434 16.77ZM54.434 53.524L52.6323 52.6557L52.6279 52.665L54.434 53.524ZM44.188 65.274L45.2348 66.9781L44.188 65.274ZM36.668 49.576L34.9623 48.5317L34.9562 48.5418L36.668 49.576ZM36.668 20.718L34.9468 21.7366L34.9592 21.7575L34.972 21.778L36.668 20.718ZM21.628 20.718L19.9223 19.6737L19.9162 19.6838L21.628 20.718ZM21.628 49.576L19.9068 50.5946L19.9192 50.6155L19.932 50.636L21.628 49.576ZM29.242 67.316C23.9351 67.316 19.2909 66.0528 15.2488 63.5698L13.1552 66.9781C17.8865 69.8845 23.2689 71.316 29.242 71.316V67.316ZM15.2488 63.5698C11.221 61.0956 8.01867 57.4834 5.65954 52.6471L2.06446 54.4008C4.71867 59.842 8.40965 64.063 13.1552 66.9781L15.2488 63.5698ZM5.67213 52.6735C3.37874 47.7927 2.196 41.954 2.196 35.1H-1.804C-1.804 42.4086 -0.542743 48.8527 2.05187 54.3745L5.67213 52.6735ZM2.196 35.1C2.196 28.245 3.37905 22.4419 5.66813 17.629L2.05587 15.911C-0.543054 21.3754 -1.804 27.7923 -1.804 35.1H2.196ZM5.66369 17.6383C8.02486 12.7388 11.2273 9.10051 15.2488 6.63015L13.1552 3.22185C8.40335 6.14082 4.71247 10.3985 2.06031 15.9017L5.66369 17.6383ZM15.2488 6.63015C19.2909 4.14718 23.9351 2.884 29.242 2.884V-1.116C23.2689 -1.116 17.8865 0.315475 13.1552 3.22185L15.2488 6.63015ZM29.242 2.884C34.4817 2.884 39.0956 4.145 43.1412 6.63015L45.2348 3.22185C40.5071 0.317663 35.157 -1.116 29.242 -1.116V2.884ZM43.1412 6.63015C47.1578 9.0975 50.3257 12.7296 52.6239 17.6205L56.2441 15.9195C53.6543 10.4078 49.9916 6.14383 45.2348 3.22185L43.1412 6.63015ZM52.6365 17.6468C54.982 22.4551 56.194 28.2516 56.194 35.1H60.194C60.194 27.7857 58.8994 21.3622 56.2315 15.8932L52.6365 17.6468ZM56.194 35.1C56.194 41.9474 54.9823 47.7795 52.6323 52.6557L56.2357 54.3923C58.8991 48.8658 60.194 42.4152 60.194 35.1H56.194ZM52.6279 52.665C50.3318 57.4926 47.1641 61.0986 43.1412 63.5698L45.2348 66.9781C49.9852 64.0601 53.6482 59.8327 56.2401 54.383L52.6279 52.665ZM43.1412 63.5698C39.0956 66.055 34.4817 67.316 29.242 67.316V71.316C35.157 71.316 40.5071 69.8823 45.2348 66.9781L43.1412 63.5698ZM29.242 56.088C33.1718 56.088 36.253 54.1305 38.3798 50.6102L34.9562 48.5418C33.4484 51.0375 31.5789 52.088 29.242 52.088V56.088ZM38.3737 50.6203C40.5477 47.0695 41.488 41.7876 41.488 35.1H37.488C37.488 41.5724 36.5483 45.9412 34.9623 48.5317L38.3737 50.6203ZM41.488 35.1C41.488 28.418 40.5497 23.1551 38.364 19.658L34.972 21.778C36.5463 24.2969 37.488 28.622 37.488 35.1H41.488ZM38.3892 19.6994C36.2715 16.1212 33.192 14.112 29.242 14.112V18.112C31.5587 18.112 33.4298 19.1734 34.9468 21.7366L38.3892 19.6994ZM29.242 14.112C25.251 14.112 22.111 16.0988 19.9223 19.6737L23.3337 21.7623C24.905 19.1959 26.841 18.112 29.242 18.112V14.112ZM19.9162 19.6838C17.8079 23.1733 16.902 28.4242 16.902 35.1H20.902C20.902 28.6158 21.8134 24.2787 23.3398 21.7522L19.9162 19.6838ZM16.902 35.1C16.902 41.7813 17.8098 47.0514 19.9068 50.5946L23.3492 48.5574C21.8115 45.9592 20.902 41.5787 20.902 35.1H16.902ZM19.932 50.636C22.1296 54.1522 25.2707 56.088 29.242 56.088V52.088C26.8213 52.088 24.8864 51.0158 23.324 48.516L19.932 50.636ZM97.3736 28.52L95.9087 27.1584L93.4914 29.7591L96.9684 30.4785L97.3736 28.52ZM109.876 35.288L108.353 36.5849L108.366 36.6001L108.379 36.615L109.876 35.288ZM111.098 58.224L109.414 57.1441L109.407 57.1554L109.4 57.1669L111.098 58.224ZM101.51 66.308L102.361 68.1177L102.373 68.1123L101.51 66.308ZM71.8056 67.624L71.3206 69.5643L71.3268 69.5658L71.8056 67.624ZM60.0556 62.83L58.2549 61.9598L57.473 63.5779L58.9985 64.5278L60.0556 62.83ZM66.8236 48.824L67.9516 47.1724L66.0335 45.8625L65.0229 47.9538L66.8236 48.824ZM75.4716 52.866L74.9073 54.7848L74.9173 54.7876L75.4716 52.866ZM92.6736 52.49L93.7437 54.1796L92.6736 52.49ZM77.6336 41.022H75.6336V43.022H77.6336V41.022ZM77.6336 29.272L76.1661 27.9132L75.6336 28.4883V29.272H77.6336ZM89.3836 16.582L90.8512 17.9408L93.9612 14.582H89.3836V16.582ZM63.4396 16.582H61.4396V18.582H63.4396V16.582ZM63.4396 2.2V0.199995H61.4396V2.2H63.4396ZM111.004 2.2H113.004V0.199995H111.004V2.2ZM111.004 13.856L112.469 15.2176L113.004 14.6419V13.856H111.004ZM96.9684 30.4785C102.097 31.5396 105.825 33.6174 108.353 36.5849L111.398 33.9911C108.161 30.1905 103.554 27.7564 97.7789 26.5615L96.9684 30.4785ZM108.379 36.615C110.975 39.5425 112.294 43.1016 112.294 47.414H116.294C116.294 42.201 114.667 37.6762 111.372 33.961L108.379 36.615ZM112.294 47.414C112.294 50.9102 111.342 54.1397 109.414 57.1441L112.781 59.3039C115.115 55.6657 116.294 51.6885 116.294 47.414H112.294ZM109.4 57.1669C107.574 60.0987 104.705 62.563 100.647 64.5037L102.373 68.1123C106.963 65.917 110.485 62.992 112.795 59.2811L109.4 57.1669ZM100.658 64.4984C96.7382 66.343 91.7547 67.316 85.6236 67.316V71.316C92.1512 71.316 97.7584 70.2837 102.361 68.1176L100.658 64.4984ZM85.6236 67.316C81.1503 67.316 76.705 66.7722 72.2845 65.6822L71.3268 69.5658C76.0556 70.7318 80.8224 71.316 85.6236 71.316V67.316ZM72.2907 65.6837C67.9438 64.597 64.2275 63.0716 61.1128 61.1322L58.9985 64.5278C62.5265 66.7244 66.6434 68.395 71.3206 69.5643L72.2907 65.6837ZM61.8564 63.7002L68.6244 49.6942L65.0229 47.9538L58.2549 61.9598L61.8564 63.7002ZM65.6957 50.4756C68.4496 52.3563 71.5248 53.7899 74.9073 54.7847L76.036 50.9473C73.0265 50.0621 70.3363 48.801 67.9516 47.1724L65.6957 50.4756ZM74.9173 54.7876C78.3414 55.7754 81.724 56.276 85.0596 56.276V52.276C82.1286 52.276 79.1192 51.8366 76.026 50.9444L74.9173 54.7876ZM85.0596 56.276C88.4777 56.276 91.4329 55.6432 93.7437 54.1796L91.6035 50.8004C90.1544 51.7181 88.0336 52.276 85.0596 52.276V56.276ZM93.7437 54.1796C96.1924 52.6288 97.4936 50.3048 97.4936 47.414H93.4936C93.4936 48.9099 92.9148 49.9699 91.6035 50.8004L93.7437 54.1796ZM97.4936 47.414C97.4936 44.6588 96.3543 42.3953 94.0519 40.932C91.9031 39.5664 88.9357 39.022 85.4356 39.022V43.022C88.6409 43.022 90.7025 43.5429 91.9064 44.308C92.9566 44.9754 93.4936 45.9079 93.4936 47.414H97.4936ZM85.4356 39.022H77.6336V43.022H85.4356V39.022ZM79.6336 41.022V29.272H75.6336V41.022H79.6336ZM79.1012 30.6308L90.8512 17.9408L87.9161 15.2232L76.1661 27.9132L79.1012 30.6308ZM89.3836 14.582H63.4396V18.582H89.3836V14.582ZM65.4396 16.582V2.2H61.4396V16.582H65.4396ZM63.4396 4.2H111.004V0.199995H63.4396V4.2ZM109.004 2.2V13.856H113.004V2.2H109.004ZM109.539 12.4944L95.9087 27.1584L98.8386 29.8816L112.469 15.2176L109.539 12.4944Z" fill="white"/>
</g>
</svg>
