<svg width="407" height="163" viewBox="0 0 407 163" fill="none" xmlns="http://www.w3.org/2000/svg">
<g clip-path="url(#clip0_328_1941)">
<path d="M401.625 28.9756H399.568V21.843H392.435V14.7104H385.303V7.57788H28.5303V14.7104H21.3978V21.843H14.2651V28.9756H7.13254V106.924H14.2651V114.056H21.3978V121.177H28.5303V128.309H71.6424V155.457H78.7627V149.699H85.9076V142.558H93.0319V135.425H100.165V128.293H385.29V121.177H392.423V114.044H399.556V106.911H406.676V28.9633L401.625 28.9756Z" fill="#220633"/>
<path d="M394.492 21.843H392.435V14.7104H385.303V7.57792H378.17V0.445312H21.3978V7.57792H14.2652V14.7104H7.1326V21.843H9.15527e-05V99.7871H7.1326V106.92H14.2652V114.052H21.3978V121.177H64.5181V148.325H71.6425V142.566H78.7875V135.425H85.9076V128.293H93.032V121.177H378.158V114.044H385.291V106.912H392.423V99.7871H399.543V21.8389L394.492 21.843Z" fill="white"/>
<path d="M100.164 114.057H93.0319V121.189H100.164V114.057Z" fill="#220633"/>
<path d="M93.0319 121.189H85.8994V128.322H93.0319V121.189Z" fill="#220633"/>
<path d="M85.8994 128.322H78.7668V135.454H85.8994V128.322Z" fill="#220633"/>
<path d="M78.775 135.45H71.6425V142.583H78.775V135.45Z" fill="#220633"/>
<path d="M71.6342 114.057H64.514V148.342H71.6342V114.057Z" fill="#220633"/>
<path d="M21.3978 0.445312V7.57792H378.162V0.445312H21.3978ZM0.0083313 21.8348V99.7871H7.14084V21.8389L0.0083313 21.8348ZM93.032 114.056V121.177H378.158V114.044L93.032 114.056ZM21.3937 114.056V121.177H71.6425V114.044L21.3937 114.056ZM392.419 21.843V14.7104V106.924V99.7871H399.539V21.8389L392.419 21.843Z" fill="#220633"/>
<path d="M21.3977 7.57788H14.2651V14.7105H21.3977V7.57788Z" fill="#220633"/>
<path d="M14.2651 14.7104H7.13257V21.843H14.2651V14.7104Z" fill="#220633"/>
<path d="M392.427 14.7104H385.295V21.843H392.427V14.7104Z" fill="#220633"/>
<path d="M385.295 7.57788H378.162V14.7105H385.295V7.57788Z" fill="#220633"/>
<path d="M385.295 106.924H378.162V114.056H385.295V106.924Z" fill="#220633"/>
<path d="M392.427 99.791H385.295V106.924H392.427V99.791Z" fill="#220633"/>
<path d="M14.2651 99.791H7.13257V106.924H14.2651V99.791Z" fill="#220633"/>
<path d="M21.3977 106.924H14.2651V114.056H21.3977V106.924Z" fill="#220633"/>
<path d="M71.6425 142.583H64.5058V162.61H71.6425V142.583Z" fill="#220633"/>
</g>
<defs>
<clipPath id="clip0_328_1941">
<rect width="406.68" height="162.165" fill="white" transform="translate(0 0.445312)"/>
</clipPath>
</defs>
</svg>
