<svg width="507" height="164" viewBox="0 0 507 164" fill="none" xmlns="http://www.w3.org/2000/svg">
<g clip-path="url(#clip0_328_2036)">
<path d="M5.38815 29.4348H7.45004V22.2841H14.6006V15.1335H21.7512V7.98291H478.414V15.1335H485.548V22.2841H492.699V29.4348H499.858V107.58H492.707V114.731H485.556V121.869H478.414V129.02H377.456V156.237H370.318V150.463H363.15V143.305H356.012V136.154H348.861V129.003H21.7759V121.869H14.6254V114.719H7.47479V107.568H0.336517V29.4224L5.38815 29.4348Z" fill="#220633"/>
<path d="M12.5387 22.2839H14.6006V15.1333H21.7512V7.98269H28.9225V0.832031H485.548V7.98269H492.699V15.1333H499.858V22.2839H507.008V100.425H499.858V107.576H492.707V114.727H485.556V121.869H384.598V149.086H377.46V143.313H370.293V136.154H363.155V129.003H356.004V121.869H28.9225V114.718H21.7719V107.568H14.6212V100.425H7.47885V22.2798L12.5387 22.2839Z" fill="white"/>
<path d="M348.849 114.73H356V121.881H348.849V114.73Z" fill="#220633"/>
<path d="M356 121.881H363.15V129.032H356V121.881Z" fill="#220633"/>
<path d="M363.15 129.032H370.301V136.182H363.15V129.032Z" fill="#220633"/>
<path d="M370.293 136.179H377.443V143.329H370.293V136.179Z" fill="#220633"/>
<path d="M377.452 114.73H384.59V149.102H377.452V114.73Z" fill="#220633"/>
<path d="M485.548 0.832031V7.98269H28.9224V0.832031H485.548ZM506.992 22.2757V100.425H499.858V22.2798L506.992 22.2757ZM355.987 114.722V121.869H28.9224V114.718L355.987 114.722ZM485.54 114.722V121.869H377.443V114.718L485.54 114.722ZM14.6045 22.2757V15.125V107.572V100.425H7.47873V22.2798L14.6045 22.2757Z" fill="#220633"/>
<path d="M485.548 7.98242H492.699V15.133H485.548V7.98242Z" fill="#220633"/>
<path d="M492.699 15.1333H499.849V22.2839H492.699V15.1333Z" fill="#220633"/>
<path d="M14.6088 15.1333H21.7596V22.2839H14.6088V15.1333Z" fill="#220633"/>
<path d="M21.7596 7.98242H28.9101V15.133H21.7596V7.98242Z" fill="#220633"/>
<path d="M21.7596 107.58H28.9101V114.731H21.7596V107.58Z" fill="#220633"/>
<path d="M14.6088 100.43H21.7596V107.58H14.6088V100.43Z" fill="#220633"/>
<path d="M492.699 100.43H499.849V107.58H492.699V100.43Z" fill="#220633"/>
<path d="M485.548 107.58H492.699V114.731H485.548V107.58Z" fill="#220633"/>
<path d="M377.443 143.329H384.598V163.408H377.443V143.329Z" fill="#220633"/>
</g>
<defs>
<clipPath id="clip0_328_2036">
<rect width="506.68" height="162.576" fill="white" transform="matrix(-1 0 0 1 507 0.832031)"/>
</clipPath>
</defs>
</svg>
