<svg width="375" height="634" viewBox="0 0 375 634" fill="none" xmlns="http://www.w3.org/2000/svg">
<g style="mix-blend-mode:overlay" filter="url(#filter0_f_552_2853)">
<path d="M245 326.407C245 378.097 190.078 420 122.329 420C54.5791 420 -19 284.503 -19 232.813C-19 181.123 37.6714 247.947 105.304 289.388C173.053 289.388 245 274.716 245 326.407Z" fill="#0C0112"/>
</g>
<g style="mix-blend-mode:overlay" filter="url(#filter1_f_552_2853)">
<path d="M133 326.407C133 378.097 187.922 420 255.671 420C323.421 420 397 284.503 397 232.813C397 181.123 340.329 247.947 272.696 289.388C204.947 289.388 133 274.716 133 326.407Z" fill="#0C0112"/>
</g>
<defs>
<filter id="filter0_f_552_2853" x="-233" y="0" width="692" height="634" filterUnits="userSpaceOnUse" color-interpolation-filters="sRGB">
<feFlood flood-opacity="0" result="BackgroundImageFix"/>
<feBlend mode="normal" in="SourceGraphic" in2="BackgroundImageFix" result="shape"/>
<feGaussianBlur stdDeviation="107" result="effect1_foregroundBlur_552_2853"/>
</filter>
<filter id="filter1_f_552_2853" x="-81" y="0" width="692" height="634" filterUnits="userSpaceOnUse" color-interpolation-filters="sRGB">
<feFlood flood-opacity="0" result="BackgroundImageFix"/>
<feBlend mode="normal" in="SourceGraphic" in2="BackgroundImageFix" result="shape"/>
<feGaussianBlur stdDeviation="107" result="effect1_foregroundBlur_552_2853"/>
</filter>
</defs>
</svg>
