<svg width="54" height="308" viewBox="0 0 54 308" fill="none" xmlns="http://www.w3.org/2000/svg">
<g clip-path="url(#clip0_328_1788)">
<path d="M41.1991 -0.0429687L39.8652 2.45432L52.6828 9.30118L54.0168 6.8039L41.1991 -0.0429687Z" fill="white" fill-opacity="0.3"/>
<path d="M38.0267 5.96625L36.7422 8.48935L42.4087 11.3741L43.6932 8.85097L38.0267 5.96625Z" fill="white" fill-opacity="0.3"/>
<path d="M35.281 11.4343L34.0417 13.9799L39.7586 16.7632L40.9979 14.2177L35.281 11.4343Z" fill="white" fill-opacity="0.3"/>
<path d="M34.9509 15.3855L33.7618 17.9619L39.548 20.6325L40.7372 18.0561L34.9509 15.3855Z" fill="white" fill-opacity="0.3"/>
<path d="M30.0871 22.4814L28.9391 25.0695L34.7515 27.6476L35.8994 25.0595L30.0871 22.4814Z" fill="white" fill-opacity="0.3"/>
<path d="M25.6411 32.8465L24.5787 35.4709L38.0485 40.924L39.1109 38.2996L25.6411 32.8465Z" fill="white" fill-opacity="0.3"/>
<path d="M23.1043 39.2407L22.0939 41.8855L28.0336 44.1548L29.044 41.51L23.1043 39.2407Z" fill="white" fill-opacity="0.3"/>
<path d="M20.944 44.9744L19.9808 47.6367L25.96 49.8L26.9232 47.1376L20.944 44.9744Z" fill="white" fill-opacity="0.3"/>
<path d="M18.9089 50.6498L17.9937 53.329L24.0108 55.3845L24.926 52.7052L18.9089 50.6498Z" fill="white" fill-opacity="0.3"/>
<path d="M16.954 56.4591L16.0866 59.1542L22.1394 61.1022L23.0067 58.4071L16.954 56.4591Z" fill="white" fill-opacity="0.3"/>
<path d="M13.6224 67.3005L12.8439 70.0226L26.8155 74.0183L27.594 71.2962L13.6224 67.3005Z" fill="white" fill-opacity="0.3"/>
<path d="M14.7206 77.0012L13.9844 79.7476L20.1522 81.4008L20.8884 78.6545L14.7206 77.0012Z" fill="white" fill-opacity="0.3"/>
<path d="M10.2666 79.7584L9.59126 82.5079L15.7662 84.0246L16.4415 81.2751L10.2666 79.7584Z" fill="white" fill-opacity="0.3"/>
<path d="M8.83863 85.7128L8.21234 88.4739L14.4134 89.8805L15.0397 87.1194L8.83863 85.7128Z" fill="white" fill-opacity="0.3"/>
<path d="M7.52952 91.5633L6.95296 94.3352L13.1782 95.6301L13.7548 92.8581L7.52952 91.5633Z" fill="white" fill-opacity="0.3"/>
<path d="M5.36054 102.73L4.87474 105.519L19.191 108.012L19.6768 105.223L5.36054 102.73Z" fill="white" fill-opacity="0.3"/>
<path d="M4.24041 109.302L3.8102 112.1L10.0948 113.066L10.525 110.268L4.24041 109.302Z" fill="white" fill-opacity="0.3"/>
<path d="M3.33027 115.434L2.94946 118.24L9.25013 119.095L9.63095 116.29L3.33027 115.434Z" fill="white" fill-opacity="0.3"/>
<path d="M2.54175 121.424L2.21094 124.236L8.52584 124.979L8.85666 122.167L2.54175 121.424Z" fill="white" fill-opacity="0.3"/>
<path d="M1.84889 127.518L1.5677 130.335L7.89472 130.966L8.17592 128.149L1.84889 127.518Z" fill="white" fill-opacity="0.3"/>
<path d="M0.868327 138.696L0.678719 141.521L15.1779 142.494L15.3675 139.669L0.868327 138.696Z" fill="white" fill-opacity="0.3"/>
<path d="M0.452271 145.55L0.317421 148.378L6.66876 148.681L6.80361 145.853L0.452271 145.55Z" fill="white" fill-opacity="0.3"/>
<path d="M0.193925 151.671L0.108452 154.5L6.46402 154.692L6.54949 151.862L0.193925 151.671Z" fill="white" fill-opacity="0.3"/>
<path d="M0.0406411 157.786L0.00457001 160.617L6.36252 160.698L6.39859 157.867L0.0406411 157.786Z" fill="white" fill-opacity="0.3"/>
<path d="M6.29135 163.849L-0.0670776 163.878L-0.0542295 166.709L6.3042 166.681L6.29135 163.849Z" fill="white" fill-opacity="0.3"/>
<path d="M14.6768 174.601L0.154854 175.133L0.258601 177.963L14.7806 177.43L14.6768 174.601Z" fill="white" fill-opacity="0.3"/>
<path d="M6.88779 181.55L0.539337 181.907L0.698367 184.734L7.04682 184.377L6.88779 181.55Z" fill="white" fill-opacity="0.3"/>
<path d="M7.14717 187.554L0.805923 188.022L1.01426 190.846L7.35551 190.378L7.14717 187.554Z" fill="white" fill-opacity="0.3"/>
<path d="M7.66166 193.529L1.32964 194.109L1.58773 196.928L7.91975 196.349L7.66166 193.529Z" fill="white" fill-opacity="0.3"/>
<path d="M8.21912 199.505L1.8983 200.197L2.20604 203.011L8.52686 202.32L8.21912 199.505Z" fill="white" fill-opacity="0.3"/>
<path d="M17.6646 209.321L3.27817 211.371L3.67758 214.174L18.064 212.124L17.6646 209.321Z" fill="white" fill-opacity="0.3"/>
<path d="M10.5388 217.075L4.2628 218.096L4.71741 220.891L10.9934 219.87L10.5388 217.075Z" fill="white" fill-opacity="0.3"/>
<path d="M11.5675 222.984L5.31071 224.116L5.815 226.902L12.0718 225.77L11.5675 222.984Z" fill="white" fill-opacity="0.3"/>
<path d="M12.6414 228.888L6.40575 230.132L6.95955 232.908L13.1952 231.665L12.6414 228.888Z" fill="white" fill-opacity="0.3"/>
<path d="M13.8772 234.759L7.6647 236.113L8.26783 238.88L14.4804 237.525L13.8772 234.759Z" fill="white" fill-opacity="0.3"/>
<path d="M24.203 243.553L10.1141 247.112L10.8076 249.857L24.8966 246.297L24.203 243.553Z" fill="white" fill-opacity="0.3"/>
<path d="M18.0633 251.969L11.9308 253.649L12.6789 256.38L18.8114 254.7L18.0633 251.969Z" fill="white" fill-opacity="0.3"/>
<path d="M19.6215 257.767L13.5198 259.556L14.3163 262.273L20.418 260.484L19.6215 257.767Z" fill="white" fill-opacity="0.3"/>
<path d="M21.3166 263.529L15.2478 265.427L16.0925 268.129L22.1614 266.232L21.3166 263.529Z" fill="white" fill-opacity="0.3"/>
<path d="M27.8102 269.978L21.7696 272.013L22.6756 274.703L28.7162 272.668L27.8102 269.978Z" fill="white" fill-opacity="0.3"/>
<path d="M34.4504 276.846L20.8186 281.88L21.7994 284.536L35.4312 279.502L34.4504 276.846Z" fill="white" fill-opacity="0.3"/>
<path d="M29.126 285.918L23.2063 288.24L24.2398 290.875L30.1595 288.554L29.126 285.918Z" fill="white" fill-opacity="0.3"/>
<path d="M31.391 291.469L25.5136 293.895L26.5939 296.512L32.4713 294.086L31.391 291.469Z" fill="white" fill-opacity="0.3"/>
<path d="M33.6437 297.038L27.8104 299.568L28.9371 302.166L34.7704 299.635L33.6437 297.038Z" fill="white" fill-opacity="0.3"/>
<path d="M36.042 302.537L30.2546 305.171L31.4273 307.748L37.2147 305.114L36.042 302.537Z" fill="white" fill-opacity="0.3"/>
</g>
<defs>
<clipPath id="clip0_328_1788">
<rect width="54" height="307.758" fill="white"/>
</clipPath>
</defs>
</svg>
