<svg width="54" height="308" viewBox="0 0 54 308" fill="none" xmlns="http://www.w3.org/2000/svg">
<g opacity="0.4">
<g clip-path="url(#clip0_483_1280)">
<path d="M41.1992 -0.0429687L39.8652 2.45432L52.6829 9.30118L54.0169 6.8039L41.1992 -0.0429687Z" fill="#3341EB"/>
<path d="M38.0267 5.96625L36.7422 8.48935L42.4087 11.3741L43.6931 8.85097L38.0267 5.96625Z" fill="#3341EB"/>
<path d="M35.2811 11.4343L34.0417 13.9799L39.7586 16.7632L40.998 14.2177L35.2811 11.4343Z" fill="#3341EB"/>
<path d="M34.9508 15.3855L33.7617 17.9619L39.548 20.6325L40.7371 18.0561L34.9508 15.3855Z" fill="#3341EB"/>
<path d="M30.0872 22.4814L28.9392 25.0695L34.7516 27.6476L35.8996 25.0595L30.0872 22.4814Z" fill="#3341EB"/>
<path d="M25.641 32.8465L24.5786 35.4709L38.0484 40.924L39.1109 38.2996L25.641 32.8465Z" fill="#3341EB"/>
<path d="M23.1042 39.2407L22.0938 41.8855L28.0335 44.1548L29.0439 41.51L23.1042 39.2407Z" fill="#3341EB"/>
<path d="M20.9439 44.9744L19.9807 47.6367L25.9599 49.8L26.9232 47.1376L20.9439 44.9744Z" fill="#3341EB"/>
<path d="M18.9089 50.6498L17.9937 53.329L24.0108 55.3845L24.926 52.7052L18.9089 50.6498Z" fill="#3341EB"/>
<path d="M16.954 56.4591L16.0867 59.1542L22.1394 61.1022L23.0068 58.4071L16.954 56.4591Z" fill="#3341EB"/>
<path d="M13.6225 67.3005L12.844 70.0226L26.8156 74.0183L27.5941 71.2962L13.6225 67.3005Z" fill="#3341EB"/>
<path d="M14.7205 77.0012L13.9844 79.7476L20.1522 81.4008L20.8883 78.6545L14.7205 77.0012Z" fill="#3341EB"/>
<path d="M10.2667 79.7584L9.59131 82.5079L15.7662 84.0246L16.4416 81.2751L10.2667 79.7584Z" fill="#3341EB"/>
<path d="M8.83869 85.7128L8.2124 88.4739L14.4134 89.8805L15.0397 87.1194L8.83869 85.7128Z" fill="#3341EB"/>
<path d="M7.52944 91.5633L6.95288 94.3352L13.1781 95.6301L13.7547 92.8581L7.52944 91.5633Z" fill="#3341EB"/>
<path d="M5.36055 102.73L4.87476 105.519L19.191 108.012L19.6768 105.223L5.36055 102.73Z" fill="#3341EB"/>
<path d="M4.24051 109.302L3.8103 112.1L10.0949 113.066L10.5251 110.268L4.24051 109.302Z" fill="#3341EB"/>
<path d="M3.33028 115.434L2.94946 118.24L9.25014 119.095L9.63096 116.29L3.33028 115.434Z" fill="#3341EB"/>
<path d="M2.54175 121.424L2.21094 124.236L8.52584 124.979L8.85666 122.167L2.54175 121.424Z" fill="#3341EB"/>
<path d="M1.84882 127.518L1.56763 130.335L7.89465 130.966L8.17585 128.149L1.84882 127.518Z" fill="#3341EB"/>
<path d="M0.86832 138.696L0.678711 141.521L15.1778 142.494L15.3675 139.669L0.86832 138.696Z" fill="#3341EB"/>
<path d="M0.452233 145.55L0.317383 148.378L6.66872 148.681L6.80357 145.853L0.452233 145.55Z" fill="#3341EB"/>
<path d="M0.193872 151.671L0.108398 154.5L6.46396 154.692L6.54944 151.862L0.193872 151.671Z" fill="#3341EB"/>
<path d="M0.0407097 157.786L0.00463867 160.617L6.36259 160.698L6.39866 157.867L0.0407097 157.786Z" fill="#3341EB"/>
<path d="M6.29129 163.849L-0.0671387 163.878L-0.0542905 166.709L6.30414 166.681L6.29129 163.849Z" fill="#3341EB"/>
<path d="M14.6768 174.601L0.154785 175.133L0.258532 177.963L14.7805 177.43L14.6768 174.601Z" fill="#3341EB"/>
<path d="M6.88776 181.55L0.539307 181.907L0.698337 184.734L7.04679 184.377L6.88776 181.55Z" fill="#3341EB"/>
<path d="M7.14716 187.554L0.805908 188.022L1.01425 190.846L7.3555 190.378L7.14716 187.554Z" fill="#3341EB"/>
<path d="M7.66161 193.529L1.32959 194.109L1.58768 196.928L7.9197 196.349L7.66161 193.529Z" fill="#3341EB"/>
<path d="M8.21901 199.505L1.89819 200.197L2.20593 203.011L8.52675 202.32L8.21901 199.505Z" fill="#3341EB"/>
<path d="M17.6645 209.321L3.27808 211.371L3.67749 214.174L18.0639 212.124L17.6645 209.321Z" fill="#3341EB"/>
<path d="M10.5387 217.075L4.2627 218.096L4.71731 220.891L10.9933 219.87L10.5387 217.075Z" fill="#3341EB"/>
<path d="M11.5676 222.984L5.31079 224.116L5.81508 226.902L12.0719 225.77L11.5676 222.984Z" fill="#3341EB"/>
<path d="M12.6414 228.888L6.40576 230.132L6.95956 232.908L13.1952 231.665L12.6414 228.888Z" fill="#3341EB"/>
<path d="M13.8773 234.759L7.66479 236.113L8.26793 238.88L14.4805 237.525L13.8773 234.759Z" fill="#3341EB"/>
<path d="M24.203 243.553L10.114 247.112L10.8076 249.857L24.8965 246.297L24.203 243.553Z" fill="#3341EB"/>
<path d="M18.0635 251.969L11.9309 253.649L12.679 256.38L18.8115 254.7L18.0635 251.969Z" fill="#3341EB"/>
<path d="M19.6214 257.767L13.5198 259.556L14.3163 262.273L20.418 260.484L19.6214 257.767Z" fill="#3341EB"/>
<path d="M21.3167 263.529L15.2478 265.427L16.0926 268.129L22.1614 266.232L21.3167 263.529Z" fill="#3341EB"/>
<path d="M27.8101 269.978L21.7695 272.013L22.6755 274.703L28.7161 272.668L27.8101 269.978Z" fill="#3341EB"/>
<path d="M34.4504 276.846L20.8186 281.88L21.7995 284.536L35.4313 279.502L34.4504 276.846Z" fill="#3341EB"/>
<path d="M29.126 285.918L23.2063 288.24L24.2398 290.875L30.1595 288.554L29.126 285.918Z" fill="#3341EB"/>
<path d="M31.3911 291.469L25.5137 293.895L26.594 296.512L32.4714 294.086L31.3911 291.469Z" fill="#3341EB"/>
<path d="M33.6436 297.038L27.8103 299.568L28.937 302.166L34.7703 299.635L33.6436 297.038Z" fill="#3341EB"/>
<path d="M36.042 302.537L30.2546 305.171L31.4274 307.748L37.2147 305.114L36.042 302.537Z" fill="#3341EB"/>
</g>
</g>
<defs>
<clipPath id="clip0_483_1280">
<rect width="54" height="307.758" fill="white"/>
</clipPath>
</defs>
</svg>
